<svg width="32" height="32" viewBox="0 0 32 32" fill="none" xmlns="http://www.w3.org/2000/svg">
<path d="M3 27H21" stroke="white" stroke-width="2" stroke-linecap="round" stroke-linejoin="round"/>
<path d="M2.11586 17.5462L6.82778 21.9636C7.45558 22.5522 8.25645 22.9226 9.11147 23.0198C9.9665 23.1171 10.8301 22.936 11.574 22.5035L30.5 11.5L28.1701 8.65236C27.5656 7.9136 26.7169 7.41534 25.7772 7.24757C24.8376 7.07981 23.8689 7.25361 23.0461 7.73757L17.5 11L9.99997 8.50003L7.9376 9.38391C7.7833 9.45003 7.64813 9.55394 7.54456 9.68605C7.44098 9.81815 7.37233 9.97421 7.34493 10.1398C7.31753 10.3054 7.33226 10.4753 7.38777 10.6337C7.44328 10.7921 7.53777 10.934 7.66255 11.0463L11.5 14.5L7.99997 16.5L4.49997 15L2.40588 15.8975C2.25317 15.9629 2.11917 16.0654 2.01599 16.1956C1.91282 16.3259 1.84371 16.4798 1.81493 16.6434C1.78614 16.807 1.79858 16.9753 1.85112 17.1329C1.90367 17.2905 1.99465 17.4325 2.11586 17.5462V17.5462Z" stroke="white" stroke-width="2" stroke-linecap="round" stroke-linejoin="round"/>
</svg>
