<svg width="5" height="5" viewBox="0 0 5 5" fill="none" xmlns="http://www.w3.org/2000/svg">
<path d="M2.50244 0.929688L2.0415 1.86377L1.01025 2.01367L1.75635 2.74121L1.58008 3.76807L2.50244 3.2832L3.42481 3.76758L3.24854 2.74072L3.99463 2.01367L2.96338 1.86377L2.50244 0.929688Z" fill="#FFE176"/>
<path d="M4.43651 1.72266L3.19676 1.54248L2.64256 0.418947C2.62743 0.388185 2.60253 0.363283 2.57176 0.348146C2.49462 0.31006 2.40087 0.341799 2.36229 0.418947L1.80809 1.54248L0.568346 1.72266C0.534166 1.72754 0.502916 1.74365 0.47899 1.76807C0.450065 1.7978 0.434126 1.8378 0.434676 1.87927C0.435225 1.92075 0.452218 1.96031 0.48192 1.98926L1.37889 2.86377L1.16698 4.09864C1.16201 4.12736 1.16519 4.1569 1.17615 4.18392C1.18712 4.21093 1.20544 4.23432 1.22902 4.25146C1.25261 4.26859 1.28053 4.27877 1.30961 4.28084C1.33868 4.28291 1.36776 4.2768 1.39354 4.26319L2.50243 3.68018L3.61131 4.26319C3.64159 4.2793 3.67674 4.28467 3.71044 4.27881C3.7954 4.26416 3.85253 4.1836 3.83788 4.09864L3.62596 2.86377L4.52294 1.98926C4.54735 1.96533 4.56346 1.93408 4.56835 1.8999C4.58153 1.81446 4.52196 1.73535 4.43651 1.72266ZM3.24852 2.74072L3.42479 3.76758L2.50243 3.28321L1.58006 3.76807L1.75633 2.74121L1.01024 2.01367L2.04149 1.86377L2.50243 0.929689L2.96337 1.86377L3.99462 2.01367L3.24852 2.74072Z" fill="#FFC803"/>
</svg>
