<svg width="32" height="32" viewBox="0 0 32 32" fill="none" xmlns="http://www.w3.org/2000/svg">
<path d="M6.431 14.9832L6.43111 14.9831L15.7643 5.64984C15.7644 5.64981 15.7644 5.64977 15.7644 5.64973C15.8269 5.58731 15.9117 5.55225 16 5.55225C16.0883 5.55225 16.1731 5.58731 16.2356 5.64973C16.2356 5.64977 16.2356 5.64981 16.2357 5.64984L25.5689 14.9831L25.569 14.9832C25.6315 15.0456 25.6666 15.1303 25.6667 15.2186C25.6667 15.2187 25.6667 15.2188 25.6667 15.2188V28C25.6667 28.0884 25.6315 28.1732 25.569 28.2357C25.5065 28.2982 25.4217 28.3333 25.3333 28.3333H19.6667V20V19H18.6667H13.3333H12.3333V20V28.3333H6.66667C6.57826 28.3333 6.49348 28.2982 6.43097 28.2357C6.36846 28.1732 6.33334 28.0884 6.33334 28V15.2188C6.33334 15.2188 6.33334 15.2187 6.33334 15.2186C6.33341 15.1303 6.36854 15.0456 6.431 14.9832Z" stroke="black" stroke-width="2"/>
</svg>
