<svg width="24" height="24" viewBox="0 0 24 24" fill="none" xmlns="http://www.w3.org/2000/svg">
<path d="M4.293 10.7071L11.293 3.70709C11.4805 3.51962 11.7348 3.41431 12 3.41431C12.2652 3.41431 12.5195 3.51962 12.707 3.70709L19.707 10.7071C19.8946 10.8946 19.9999 11.1489 20 11.4141V21.0001C20 21.2653 19.8946 21.5197 19.7071 21.7072C19.5196 21.8947 19.2652 22.0001 19 22.0001H14V15.0001H10V22.0001H5C4.73478 22.0001 4.48043 21.8947 4.29289 21.7072C4.10536 21.5197 4 21.2653 4 21.0001V11.4141C4.00006 11.1489 4.10545 10.8946 4.293 10.7071Z" fill="#053DC7"/>
</svg>
