<svg width="16" height="16" viewBox="0 0 16 16" fill="none" xmlns="http://www.w3.org/2000/svg">
<path d="M9.66666 12.5C9.11438 12.5 8.66666 12.0523 8.66666 11.5V9.5V7.83333C8.66666 7.09695 8.06971 6.5 7.33333 6.5H6.75C6.33578 6.5 5.99999 6.83579 5.99999 7.25V7.33333C5.99999 7.70152 6.29847 8 6.66666 8V8C7.03485 8 7.33333 8.29848 7.33333 8.66667V11.5C7.33333 12.0523 6.88561 12.5 6.33333 12.5H6.08333C5.66911 12.5 5.33333 12.8358 5.33333 13.25V13.25C5.33333 13.6642 5.66911 14 6.08333 14H9.91666C10.3309 14 10.6667 13.6642 10.6667 13.25V13.25C10.6667 12.8358 10.3309 12.5 9.91666 12.5H9.66666ZM7.99999 2C7.80221 2 7.60887 2.06598 7.44443 2.1896C7.27998 2.31321 7.1518 2.48891 7.07612 2.69448C7.00043 2.90005 6.98062 3.12625 7.01921 3.34448C7.05779 3.56271 7.15304 3.76316 7.29289 3.9205C7.43274 4.07783 7.61092 4.18498 7.8049 4.22838C7.99889 4.27179 8.19995 4.24951 8.38268 4.16436C8.5654 4.07922 8.72158 3.93502 8.83146 3.75002C8.94135 3.56501 9 3.3475 9 3.125C9 2.82663 8.89464 2.54048 8.7071 2.3295C8.51957 2.11853 8.26521 2 7.99999 2Z" stroke="#212529" stroke-width="1.5"/>
</svg>
