<svg width="16" height="16" viewBox="0 0 16 16" fill="none" xmlns="http://www.w3.org/2000/svg">
<path d="M9.66667 12.5C9.11438 12.5 8.66667 12.0523 8.66667 11.5V9.5V7.83333C8.66667 7.09695 8.06971 6.5 7.33333 6.5H6.75C6.33579 6.5 6 6.83579 6 7.25V7.33333C6 7.70152 6.29848 8 6.66667 8V8C7.03486 8 7.33333 8.29848 7.33333 8.66667V11.5C7.33333 12.0523 6.88562 12.5 6.33333 12.5H6.08333C5.66912 12.5 5.33333 12.8358 5.33333 13.25V13.25C5.33333 13.6642 5.66912 14 6.08333 14H9.91666C10.3309 14 10.6667 13.6642 10.6667 13.25V13.25C10.6667 12.8358 10.3309 12.5 9.91667 12.5H9.66667ZM8 2C7.80222 2 7.60888 2.06598 7.44443 2.1896C7.27998 2.31321 7.15181 2.48891 7.07612 2.69448C7.00043 2.90005 6.98063 3.12625 7.01921 3.34448C7.0578 3.56271 7.15304 3.76316 7.29289 3.9205C7.43274 4.07783 7.61093 4.18498 7.80491 4.22838C7.99889 4.27179 8.19996 4.24951 8.38268 4.16436C8.56541 4.07922 8.72159 3.93502 8.83147 3.75002C8.94135 3.56501 9 3.3475 9 3.125C9 2.82663 8.89464 2.54048 8.70711 2.3295C8.51957 2.11853 8.26522 2 8 2Z" fill="#212529" stroke="#212529" stroke-width="1.5"/>
</svg>
