<svg width="40" height="40" viewBox="0 0 40 40" fill="none" xmlns="http://www.w3.org/2000/svg">
<path d="M25 28.3334L21.6667 25.0001H18.3333L15 28.3334H11.6667C10.7826 28.3334 9.93464 28.464 8.74997 27.3571C7.5653 26.2502 7.73434 26.2502 7.49997 24.5119C7.26559 22.7737 7.44786 16.6667 7.89059 15.0001C8.33333 13.3334 8.68452 13.2682 9.30964 12.6431C9.93476 12.0179 10.7826 11.6667 11.6667 11.6667H28.3333C29.2174 11.6667 29.9998 11.8749 30.625 12.5C31.2501 13.1252 32.2266 13.7502 32.5 15.0001C32.7734 16.25 32.8645 22.8453 32.5 24.5119C32.1354 26.1786 31.2501 26.732 30.625 27.3571C29.9998 27.9822 29.2174 28.3334 28.3333 28.3334H25ZM36.6667 23.3334C36.6667 23.7754 36.4911 24.1994 36.1785 24.5119C35.8659 24.8245 35.442 25.0001 35 25.0001C34.558 25.0001 34.134 24.8245 33.8215 24.5119C33.5089 24.1994 33.3333 23.7754 33.3333 23.3334V16.6667C33.3333 16.2247 33.5089 15.8008 33.8215 15.4882C34.134 15.1757 34.558 15.0001 35 15.0001C35.442 15.0001 35.8659 15.1757 36.1785 15.4882C36.4911 15.8008 36.6667 16.2247 36.6667 16.6667V23.3334ZM6.66666 23.3334C6.66666 23.7754 6.49107 24.1994 6.17851 24.5119C5.86595 24.8245 5.44202 25.0001 4.99999 25.0001C4.55797 25.0001 4.13404 24.8245 3.82148 24.5119C3.50892 24.1994 3.33333 23.7754 3.33333 23.3334V16.6667C3.33333 16.2247 3.50892 15.8008 3.82148 15.4882C4.13404 15.1757 4.55797 15.0001 4.99999 15.0001C5.44202 15.0001 5.86595 15.1757 6.17851 15.4882C6.49107 15.8008 6.66666 16.2247 6.66666 16.6667V23.3334Z" fill="#05B7C7"/>
</svg>
