<svg width="24" height="24" viewBox="0 0 24 24" fill="none" xmlns="http://www.w3.org/2000/svg">
<path d="M17.4166 15.0357L16.1666 16.2857M9.49996 18.6665H6.99996C6.1159 18.6665 5.26806 18.3153 4.64294 17.6902C4.01782 17.0651 3.66663 16.2172 3.66663 15.3332V7.83317C3.66663 6.94912 4.01782 6.10127 4.64294 5.47615C5.26806 4.85103 6.1159 4.49984 6.99996 4.49984H16.1666C17.0507 4.49984 17.8985 4.85103 18.5236 5.47615C19.1488 6.10127 19.5 6.94912 19.5 7.83317V10.3332L9.49996 18.6665ZM8.66663 3.6665V5.33317V3.6665ZM14.5 3.6665V5.33317V3.6665ZM3.66663 8.6665H19.5H3.66663Z" stroke="#212529" stroke-linecap="round" stroke-linejoin="round"/>
<path d="M16.5 19C18.433 19 20 17.433 20 15.5C20 13.567 18.433 12 16.5 12C14.567 12 13 13.567 13 15.5C13 17.433 14.567 19 16.5 19Z" stroke="#212529" stroke-linecap="round" stroke-linejoin="round"/>
</svg>
