<svg width="16" height="16" viewBox="0 0 16 16" fill="none" xmlns="http://www.w3.org/2000/svg">
<path d="M6.78 12.6667C6.8796 12.667 6.978 12.645 7.06799 12.6024C7.15798 12.5597 7.23726 12.4974 7.3 12.42L10.52 8.42002C10.6181 8.30073 10.6717 8.1511 10.6717 7.99669C10.6717 7.84227 10.6181 7.69264 10.52 7.57335L7.18667 3.57335C7.07351 3.43721 6.9109 3.35159 6.73462 3.33534C6.55833 3.31909 6.38281 3.37353 6.24667 3.48669C6.11052 3.59985 6.02491 3.76245 6.00865 3.93874C5.9924 4.11502 6.04684 4.29054 6.16 4.42669L9.14 8.00002L6.26 11.5734C6.17848 11.6712 6.12669 11.7904 6.11077 11.9167C6.09486 12.0431 6.11547 12.1714 6.17017 12.2864C6.22487 12.4014 6.31138 12.4984 6.41946 12.5658C6.52753 12.6332 6.65265 12.6682 6.78 12.6667Z" fill="#212529"/>
</svg>
