<svg width="24" height="24" viewBox="0 0 24 24" fill="none" xmlns="http://www.w3.org/2000/svg">
<path fill-rule="evenodd" clip-rule="evenodd" d="M15.75 17V18.25H19C19.3315 18.25 19.6495 18.1183 19.8839 17.8839C20.1183 17.6495 20.25 17.3315 20.25 17V14.6458C19.8025 14.5189 19.3902 14.2793 19.0555 13.9445C18.5397 13.4288 18.25 12.7293 18.25 12C18.25 11.2707 18.5397 10.5712 19.0555 10.0555C19.3902 9.72067 19.8025 9.48113 20.25 9.35424V7C20.25 6.66848 20.1183 6.35054 19.8839 6.11612C19.6495 5.8817 19.3315 5.75 19 5.75H15.75V7C15.75 7.41421 15.4142 7.75 15 7.75C14.5858 7.75 14.25 7.41421 14.25 7V5.75H5C4.66848 5.75 4.35054 5.8817 4.11612 6.11612C3.8817 6.35054 3.75 6.66848 3.75 7V9.35424C4.19755 9.48113 4.60976 9.72067 4.94454 10.0555C5.46027 10.5712 5.75 11.2707 5.75 12C5.75 12.7293 5.46027 13.4288 4.94454 13.9445C4.60976 14.2793 4.19755 14.5189 3.75 14.6458V17C3.75 17.3315 3.8817 17.6495 4.11612 17.8839C4.35054 18.1183 4.66848 18.25 5 18.25H14.25V17C14.25 16.5858 14.5858 16.25 15 16.25C15.4142 16.25 15.75 16.5858 15.75 17ZM15.75 11C15.75 10.5858 15.4142 10.25 15 10.25C14.5858 10.25 14.25 10.5858 14.25 11V13C14.25 13.4142 14.5858 13.75 15 13.75C15.4142 13.75 15.75 13.4142 15.75 13V11Z" fill="#F8F9FA"/>
</svg>
