<svg width="16" height="16" viewBox="0 0 16 16" fill="none" xmlns="http://www.w3.org/2000/svg">
<path d="M8 14.0001C10.9407 14.0001 13.3333 11.6074 13.3333 8.66674C13.3333 6.81311 12.3818 5.17946 10.9421 4.22395C10.5173 3.942 10 4.2835 10 4.79336V4.79336C10 5.04999 10.14 5.28304 10.3478 5.43366C10.8008 5.76206 11.1811 6.18281 11.4627 6.66982C11.8138 7.27686 11.9991 7.96552 12 8.66674C12 10.8727 10.206 12.6667 8 12.6667C5.794 12.6667 4.00001 10.8727 4.00001 8.66674C4.00089 7.9655 4.18614 7.27682 4.53717 6.66977C4.81879 6.18276 5.19917 5.76202 5.65218 5.43365C5.85998 5.28303 6 5.04997 6 4.79333V4.79333C6 4.28348 5.48269 3.94199 5.05789 4.22393C3.61825 5.17944 2.66667 6.8131 2.66667 8.66674C2.66667 11.6074 5.05934 14.0001 8 14.0001Z" fill="#6C757D"/>
<path d="M7 3C7 2.44772 7.44772 2 8 2V2C8.55228 2 9 2.44772 9 3V7C9 7.55228 8.55228 8 8 8V8C7.44772 8 7 7.55228 7 7V5V3Z" fill="#6C757D"/>
</svg>
