<svg width="24" height="24" viewBox="0 0 24 24" fill="none" xmlns="http://www.w3.org/2000/svg">
<mask id="path-1-inside-1_755_5395" fill="white">
<path d="M12.5294 11.4706C13.091 11.4706 13.6297 11.6937 14.0268 12.0908C14.424 12.488 14.6471 13.0266 14.6471 13.5882H13.5882C13.5882 13.3074 13.4767 13.0381 13.2781 12.8395C13.0795 12.641 12.8102 12.5294 12.5294 12.5294H5.11765C4.83683 12.5294 4.56751 12.641 4.36895 12.8395C4.17038 13.0381 4.05882 13.3074 4.05882 13.5882V15.1765C4.05882 16.6662 5.73071 17.8235 8.82353 17.8235C9.35518 17.8265 9.88623 17.7875 10.4118 17.7071V18.7733C9.91835 18.8453 9.38788 18.8824 8.82353 18.8824C5.21082 18.8824 3 17.3513 3 15.1765V13.5882C3 13.0266 3.22311 12.488 3.62024 12.0908C4.01738 11.6937 4.55601 11.4706 5.11765 11.4706H12.5294ZM18.8824 13.5882H19.9412C19.9412 13.0266 19.7181 12.488 19.3209 12.0908C18.9238 11.6937 18.3852 11.4706 17.8235 11.4706H14.8959C15.1726 11.7791 15.3863 12.1388 15.5248 12.5294H17.8235C18.1043 12.5294 18.3737 12.641 18.5722 12.8395C18.7708 13.0381 18.8824 13.3074 18.8824 13.5882ZM8.82353 3C9.31019 3 9.79209 3.09586 10.2417 3.28209C10.6913 3.46833 11.0999 3.7413 11.444 4.08543C11.7881 4.42955 12.0611 4.83808 12.2473 5.2877C12.4336 5.73732 12.5294 6.21922 12.5294 6.70588C12.5294 7.19255 12.4336 7.67444 12.2473 8.12406C12.0611 8.57368 11.7881 8.98221 11.444 9.32634C11.0999 9.67046 10.6913 9.94343 10.2417 10.1297C9.79209 10.3159 9.31019 10.4118 8.82353 10.4118C7.84067 10.4118 6.89806 10.0213 6.20308 9.32634C5.50809 8.63135 5.11765 7.68874 5.11765 6.70588C5.11765 5.72302 5.50809 4.78042 6.20308 4.08543C6.89806 3.39044 7.84067 3 8.82353 3V3ZM8.82353 4.05882C8.12149 4.05882 7.4482 4.33771 6.95178 4.83413C6.45536 5.33055 6.17647 6.00384 6.17647 6.70588C6.17647 7.40793 6.45536 8.08122 6.95178 8.57764C7.4482 9.07406 8.12149 9.35294 8.82353 9.35294C9.52557 9.35294 10.1989 9.07406 10.6953 8.57764C11.1917 8.08122 11.4706 7.40793 11.4706 6.70588C11.4706 6.00384 11.1917 5.33055 10.6953 4.83413C10.1989 4.33771 9.52557 4.05882 8.82353 4.05882ZM16.2353 5.11765C16.9373 5.11765 17.6106 5.39653 18.107 5.89295C18.6035 6.38937 18.8824 7.06266 18.8824 7.76471C18.8824 8.46675 18.6035 9.14004 18.107 9.63646C17.6106 10.1329 16.9373 10.4118 16.2353 10.4118C15.5333 10.4118 14.86 10.1329 14.3635 9.63646C13.8671 9.14004 13.5882 8.46675 13.5882 7.76471C13.5882 7.06266 13.8671 6.38937 14.3635 5.89295C14.86 5.39653 15.5333 5.11765 16.2353 5.11765ZM16.2353 6.17647C15.8141 6.17647 15.4101 6.3438 15.1122 6.64165C14.8144 6.93951 14.6471 7.34348 14.6471 7.76471C14.6471 8.18593 14.8144 8.58991 15.1122 8.88776C15.4101 9.18561 15.8141 9.35294 16.2353 9.35294C16.6565 9.35294 17.0605 9.18561 17.3583 8.88776C17.6562 8.58991 17.8235 8.18593 17.8235 7.76471C17.8235 7.34348 17.6562 6.93951 17.3583 6.64165C17.0605 6.3438 16.6565 6.17647 16.2353 6.17647ZM21 16.2353V19.4118C21 19.833 20.8327 20.237 20.5348 20.5348C20.237 20.8327 19.833 21 19.4118 21H13.0588C12.6376 21 12.2336 20.8327 11.9358 20.5348C11.6379 20.237 11.4706 19.833 11.4706 19.4118V16.2353C11.4706 15.8141 11.6379 15.4101 11.9358 15.1122C12.2336 14.8144 12.6376 14.6471 13.0588 14.6471H19.4118C19.833 14.6471 20.237 14.8144 20.5348 15.1122C20.8327 15.4101 21 15.8141 21 16.2353ZM19.4118 19.9412C19.4118 19.8008 19.4675 19.6661 19.5668 19.5668C19.6661 19.4675 19.8008 19.4118 19.9412 19.4118V18.3529C19.52 18.3529 19.116 18.5203 18.8181 18.8181C18.5203 19.116 18.3529 19.52 18.3529 19.9412H19.4118ZM19.9412 16.2353C19.8008 16.2353 19.6661 16.1795 19.5668 16.0802C19.4675 15.981 19.4118 15.8463 19.4118 15.7059H18.3529C18.3529 16.1271 18.5203 16.5311 18.8181 16.8289C19.116 17.1268 19.52 17.2941 19.9412 17.2941V16.2353ZM13.0588 15.7059C13.0588 15.8463 13.003 15.981 12.9038 16.0802C12.8045 16.1795 12.6698 16.2353 12.5294 16.2353V17.2941C12.9506 17.2941 13.3546 17.1268 13.6525 16.8289C13.9503 16.5311 14.1176 16.1271 14.1176 15.7059H13.0588ZM12.5294 19.4118C12.6698 19.4118 12.8045 19.4675 12.9038 19.5668C13.003 19.6661 13.0588 19.8008 13.0588 19.9412H14.1176C14.1176 19.52 13.9503 19.116 13.6525 18.8181C13.3546 18.5203 12.9506 18.3529 12.5294 18.3529V19.4118ZM16.2353 16.2353C15.8141 16.2353 15.4101 16.4026 15.1122 16.7005C14.8144 16.9983 14.6471 17.4023 14.6471 17.8235C14.6471 18.2448 14.8144 18.6487 15.1122 18.9466C15.4101 19.2444 15.8141 19.4118 16.2353 19.4118C16.6565 19.4118 17.0605 19.2444 17.3583 18.9466C17.6562 18.6487 17.8235 18.2448 17.8235 17.8235C17.8235 17.4023 17.6562 16.9983 17.3583 16.7005C17.0605 16.4026 16.6565 16.2353 16.2353 16.2353Z"/>
</mask>
<path d="M12.5294 11.4706C13.091 11.4706 13.6297 11.6937 14.0268 12.0908C14.424 12.488 14.6471 13.0266 14.6471 13.5882H13.5882C13.5882 13.3074 13.4767 13.0381 13.2781 12.8395C13.0795 12.641 12.8102 12.5294 12.5294 12.5294H5.11765C4.83683 12.5294 4.56751 12.641 4.36895 12.8395C4.17038 13.0381 4.05882 13.3074 4.05882 13.5882V15.1765C4.05882 16.6662 5.73071 17.8235 8.82353 17.8235C9.35518 17.8265 9.88623 17.7875 10.4118 17.7071V18.7733C9.91835 18.8453 9.38788 18.8824 8.82353 18.8824C5.21082 18.8824 3 17.3513 3 15.1765V13.5882C3 13.0266 3.22311 12.488 3.62024 12.0908C4.01738 11.6937 4.55601 11.4706 5.11765 11.4706H12.5294ZM18.8824 13.5882H19.9412C19.9412 13.0266 19.7181 12.488 19.3209 12.0908C18.9238 11.6937 18.3852 11.4706 17.8235 11.4706H14.8959C15.1726 11.7791 15.3863 12.1388 15.5248 12.5294H17.8235C18.1043 12.5294 18.3737 12.641 18.5722 12.8395C18.7708 13.0381 18.8824 13.3074 18.8824 13.5882ZM8.82353 3C9.31019 3 9.79209 3.09586 10.2417 3.28209C10.6913 3.46833 11.0999 3.7413 11.444 4.08543C11.7881 4.42955 12.0611 4.83808 12.2473 5.2877C12.4336 5.73732 12.5294 6.21922 12.5294 6.70588C12.5294 7.19255 12.4336 7.67444 12.2473 8.12406C12.0611 8.57368 11.7881 8.98221 11.444 9.32634C11.0999 9.67046 10.6913 9.94343 10.2417 10.1297C9.79209 10.3159 9.31019 10.4118 8.82353 10.4118C7.84067 10.4118 6.89806 10.0213 6.20308 9.32634C5.50809 8.63135 5.11765 7.68874 5.11765 6.70588C5.11765 5.72302 5.50809 4.78042 6.20308 4.08543C6.89806 3.39044 7.84067 3 8.82353 3V3ZM8.82353 4.05882C8.12149 4.05882 7.4482 4.33771 6.95178 4.83413C6.45536 5.33055 6.17647 6.00384 6.17647 6.70588C6.17647 7.40793 6.45536 8.08122 6.95178 8.57764C7.4482 9.07406 8.12149 9.35294 8.82353 9.35294C9.52557 9.35294 10.1989 9.07406 10.6953 8.57764C11.1917 8.08122 11.4706 7.40793 11.4706 6.70588C11.4706 6.00384 11.1917 5.33055 10.6953 4.83413C10.1989 4.33771 9.52557 4.05882 8.82353 4.05882ZM16.2353 5.11765C16.9373 5.11765 17.6106 5.39653 18.107 5.89295C18.6035 6.38937 18.8824 7.06266 18.8824 7.76471C18.8824 8.46675 18.6035 9.14004 18.107 9.63646C17.6106 10.1329 16.9373 10.4118 16.2353 10.4118C15.5333 10.4118 14.86 10.1329 14.3635 9.63646C13.8671 9.14004 13.5882 8.46675 13.5882 7.76471C13.5882 7.06266 13.8671 6.38937 14.3635 5.89295C14.86 5.39653 15.5333 5.11765 16.2353 5.11765ZM16.2353 6.17647C15.8141 6.17647 15.4101 6.3438 15.1122 6.64165C14.8144 6.93951 14.6471 7.34348 14.6471 7.76471C14.6471 8.18593 14.8144 8.58991 15.1122 8.88776C15.4101 9.18561 15.8141 9.35294 16.2353 9.35294C16.6565 9.35294 17.0605 9.18561 17.3583 8.88776C17.6562 8.58991 17.8235 8.18593 17.8235 7.76471C17.8235 7.34348 17.6562 6.93951 17.3583 6.64165C17.0605 6.3438 16.6565 6.17647 16.2353 6.17647ZM21 16.2353V19.4118C21 19.833 20.8327 20.237 20.5348 20.5348C20.237 20.8327 19.833 21 19.4118 21H13.0588C12.6376 21 12.2336 20.8327 11.9358 20.5348C11.6379 20.237 11.4706 19.833 11.4706 19.4118V16.2353C11.4706 15.8141 11.6379 15.4101 11.9358 15.1122C12.2336 14.8144 12.6376 14.6471 13.0588 14.6471H19.4118C19.833 14.6471 20.237 14.8144 20.5348 15.1122C20.8327 15.4101 21 15.8141 21 16.2353ZM19.4118 19.9412C19.4118 19.8008 19.4675 19.6661 19.5668 19.5668C19.6661 19.4675 19.8008 19.4118 19.9412 19.4118V18.3529C19.52 18.3529 19.116 18.5203 18.8181 18.8181C18.5203 19.116 18.3529 19.52 18.3529 19.9412H19.4118ZM19.9412 16.2353C19.8008 16.2353 19.6661 16.1795 19.5668 16.0802C19.4675 15.981 19.4118 15.8463 19.4118 15.7059H18.3529C18.3529 16.1271 18.5203 16.5311 18.8181 16.8289C19.116 17.1268 19.52 17.2941 19.9412 17.2941V16.2353ZM13.0588 15.7059C13.0588 15.8463 13.003 15.981 12.9038 16.0802C12.8045 16.1795 12.6698 16.2353 12.5294 16.2353V17.2941C12.9506 17.2941 13.3546 17.1268 13.6525 16.8289C13.9503 16.5311 14.1176 16.1271 14.1176 15.7059H13.0588ZM12.5294 19.4118C12.6698 19.4118 12.8045 19.4675 12.9038 19.5668C13.003 19.6661 13.0588 19.8008 13.0588 19.9412H14.1176C14.1176 19.52 13.9503 19.116 13.6525 18.8181C13.3546 18.5203 12.9506 18.3529 12.5294 18.3529V19.4118ZM16.2353 16.2353C15.8141 16.2353 15.4101 16.4026 15.1122 16.7005C14.8144 16.9983 14.6471 17.4023 14.6471 17.8235C14.6471 18.2448 14.8144 18.6487 15.1122 18.9466C15.4101 19.2444 15.8141 19.4118 16.2353 19.4118C16.6565 19.4118 17.0605 19.2444 17.3583 18.9466C17.6562 18.6487 17.8235 18.2448 17.8235 17.8235C17.8235 17.4023 17.6562 16.9983 17.3583 16.7005C17.0605 16.4026 16.6565 16.2353 16.2353 16.2353Z" stroke="#212529" stroke-width="3" mask="url(#path-1-inside-1_755_5395)"/>
</svg>
