<svg width="32" height="32" viewBox="0 0 32 32" fill="none" xmlns="http://www.w3.org/2000/svg">
<path d="M12.1893 28.7807C9.98403 28.1223 7.98678 26.9041 6.39199 25.2447C6.90511 24.6361 7.22497 23.8883 7.31065 23.0968C7.39633 22.3054 7.24393 21.5065 6.87295 20.8022C6.50197 20.0979 5.92929 19.5203 5.22818 19.1433C4.52708 18.7663 3.72943 18.6071 2.93733 18.686C2.75687 17.8021 2.66619 16.9022 2.66666 16C2.66666 14.6067 2.87999 13.2627 3.27732 12H3.33333C4.01316 12.0002 4.68184 11.8272 5.27621 11.4972C5.87059 11.1672 6.37105 10.6911 6.73035 10.114C7.08964 9.53687 7.29591 8.87768 7.32967 8.19868C7.36344 7.51969 7.22359 6.84328 6.92333 6.23335C8.48639 4.7779 10.3767 3.7199 12.4347 3.14868C12.7696 3.80628 13.2799 4.35841 13.9091 4.74398C14.5384 5.12955 15.262 5.33353 16 5.33335C16.738 5.33353 17.4616 5.12955 18.0909 4.74398C18.7201 4.35841 19.2304 3.80628 19.5653 3.14868C21.6233 3.7199 23.5136 4.7779 25.0767 6.23335C24.7742 6.84756 24.6345 7.52911 24.6708 8.21278C24.7072 8.89646 24.9184 9.55936 25.2842 10.138C25.6501 10.7167 26.1584 11.1918 26.7604 11.5178C27.3625 11.8438 28.0381 12.0099 28.7227 12C29.1286 13.2945 29.3346 14.6434 29.3333 16C29.3333 16.92 29.24 17.8187 29.0627 18.686C28.2706 18.6071 27.4729 18.7663 26.7718 19.1433C26.0707 19.5203 25.498 20.0979 25.127 20.8022C24.7561 21.5065 24.6037 22.3054 24.6893 23.0968C24.775 23.8883 25.0949 24.6361 25.608 25.2447C24.0132 26.9041 22.016 28.1223 19.8107 28.7807C19.5517 27.9735 19.0431 27.2695 18.3583 26.77C17.6734 26.2705 16.8477 26.0013 16 26.0013C15.1523 26.0013 14.3266 26.2705 13.6417 26.77C12.9569 27.2695 12.4483 27.9735 12.1893 28.7807Z" fill="#262626" stroke="#262626" stroke-width="2" stroke-linejoin="round"/>
<path d="M16 20.6666C16.6128 20.6666 17.2197 20.5459 17.7858 20.3114C18.352 20.0768 18.8665 19.7331 19.2998 19.2998C19.7332 18.8664 20.0769 18.352 20.3114 17.7858C20.5459 17.2196 20.6666 16.6128 20.6666 15.9999C20.6666 15.3871 20.5459 14.7802 20.3114 14.2141C20.0769 13.6479 19.7332 13.1334 19.2998 12.7001C18.8665 12.2667 18.352 11.923 17.7858 11.6885C17.2197 11.454 16.6128 11.3333 16 11.3333C14.7623 11.3333 13.5753 11.8249 12.7001 12.7001C11.825 13.5753 11.3333 14.7622 11.3333 15.9999C11.3333 17.2376 11.825 18.4246 12.7001 19.2998C13.5753 20.1749 14.7623 20.6666 16 20.6666V20.6666Z" fill="white" stroke="#262626" stroke-width="2" stroke-linejoin="round"/>
<rect width="32" height="32" stroke="black"/>
</svg>
