<svg width="16" height="16" viewBox="0 0 16 16" fill="none" xmlns="http://www.w3.org/2000/svg">
<path d="M10.6667 8H12V10.6667H10.6667V8Z" fill="#212529"/>
<path d="M13.3333 4.66667V3.33333C13.3333 2.598 12.7353 2 12 2H3.33333C2.23066 2 1.33333 2.89733 1.33333 4V12C1.33333 13.4673 2.52933 14 3.33333 14H13.3333C14.0687 14 14.6667 13.402 14.6667 12.6667V6C14.6667 5.26467 14.0687 4.66667 13.3333 4.66667ZM3.33333 3.33333H12V4.66667H3.33333C3.16168 4.65899 2.9996 4.5854 2.88085 4.46121C2.76209 4.33703 2.69582 4.17182 2.69582 4C2.69582 3.82818 2.76209 3.66297 2.88085 3.53879C2.9996 3.4146 3.16168 3.34101 3.33333 3.33333V3.33333ZM13.3333 12.6667H3.34133C3.03333 12.6587 2.66666 12.5367 2.66666 12V5.87667C2.87599 5.952 3.09799 6 3.33333 6H13.3333V12.6667Z" fill="#212529"/>
</svg>
