<svg width="32" height="32" viewBox="0 0 32 32" fill="none" xmlns="http://www.w3.org/2000/svg">
<path d="M5.724 14.276L15.0573 4.94263C15.3074 4.69267 15.6465 4.55225 16 4.55225C16.3536 4.55225 16.6926 4.69267 16.9427 4.94263L26.276 14.276C26.5261 14.526 26.6666 14.865 26.6667 15.2186V28C26.6667 28.3536 26.5262 28.6927 26.2761 28.9428C26.0261 29.1928 25.687 29.3333 25.3333 29.3333H18.6667V20H13.3333V29.3333H6.66667C6.31305 29.3333 5.97391 29.1928 5.72386 28.9428C5.47381 28.6927 5.33334 28.3536 5.33334 28V15.2186C5.33341 14.865 5.47394 14.526 5.724 14.276Z" fill="#262626"/>
</svg>
