<svg width="24" height="24" viewBox="0 0 24 24" fill="none" xmlns="http://www.w3.org/2000/svg">
<path d="M8.9 14.0241V13.2721C8.97757 13.2775 9.05508 13.2839 9.1325 13.2913C9.3454 13.3107 9.5572 13.3395 9.76731 13.3774C9.53368 13.5883 9.31685 13.811 9.1177 14.0433M8.9 14.0241C8.68409 14.0077 8.46761 13.9997 8.25104 14L8.25 14C8.21454 14 8.17931 14.0002 8.1443 14.0006L8.15 14.5L8.15188 14.5013L8.56641 14.7771C8.62724 14.684 8.69055 14.592 8.7563 14.5013C8.7566 14.5008 8.75691 14.5004 8.75721 14.5C8.80359 14.436 8.85119 14.3726 8.9 14.3098M8.9 14.0241C8.95387 14.0282 9.00771 14.0328 9.0615 14.0379L9.06412 14.0381C9.08199 14.0398 9.09985 14.0415 9.1177 14.0433M8.9 14.0241V14.3098M8.9 14.3098V14.5V14.5013V15.2428L8.56897 15.2465C8.04407 16.1558 7.761 17.187 7.75011 18.2411L8.25 18.25M8.9 14.3098C8.94383 14.2534 8.98864 14.1975 9.0344 14.1422M8.25 18.25H7.75003C7.75001 18.252 7.74999 18.254 7.74998 18.2559L7.74607 18.75H8.28598C8.25913 18.5853 8.247 18.4179 8.25 18.25ZM8.25 18.25C8.25 16.9875 8.72125 15.6975 9.6125 14.62M9.6125 14.62C9.73369 14.4734 9.86284 14.3305 9.99972 14.1922C9.70957 14.1227 9.41489 14.0729 9.1177 14.0433M9.6125 14.62L9.03458 14.142M9.6125 14.62L9.0344 14.1422M9.1177 14.0433C9.08965 14.076 9.06193 14.1089 9.03458 14.142M9.03458 14.142L9.0344 14.1422M9.03458 14.142L9.0344 14.1422M7.52821 18.75C7.50723 18.586 7.49769 18.4202 7.49985 18.254C7.4999 18.2505 7.49995 18.247 7.5 18.2435C7.50115 17.2184 7.77248 16.1896 8.28392 15.2498L8.15854 15.2512C8.00169 15.253 7.85112 15.2594 7.70657 15.2701C7.25138 16.1941 7.0082 17.2124 7 18.25H4H3.25V17.5H3.40196C3.54016 17.0856 3.78717 16.5757 4.2 16.095M7.52821 18.75L7.52564 14.0845C7.42114 14.2415 7.32275 14.4019 7.2306 14.5655C5.70469 14.7695 4.77398 15.4252 4.2 16.095M7.52821 18.75H7H3.25C2.94845 18.75 2.86055 18.6752 2.84267 18.6573C2.82479 18.6394 2.75 18.5516 2.75 18.25C2.75 17.8045 2.99818 16.7275 3.81944 15.7693C3.81952 15.7693 3.81959 15.7692 3.81966 15.7691L4.2 16.095M7.52821 18.75L3.82002 15.7687L4.2 16.095M7.01298 13.3332C3.03925 13.892 2 17.1102 2 18.25C2 19.0837 2.41625 19.5 3.25 19.5H7.70868C7.65001 19.3368 7.60345 19.1697 7.5693 19H7H3.25H2.5V18.25C2.5 17.7457 2.76918 16.6101 3.63076 15.6067C4.40636 14.7017 5.68114 13.8817 7.73832 13.7649L8.00871 13.3586C7.88159 13.3695 7.75358 13.375 7.625 13.375C7.41911 13.375 7.21467 13.3609 7.01298 13.3332Z" stroke="#212529" stroke-width="1.5"/>
</svg>
