<svg width="32" height="32" viewBox="0 0 32 32" fill="none" xmlns="http://www.w3.org/2000/svg">
<path d="M12 28C13.1046 28 14 27.1046 14 26C14 24.8954 13.1046 24 12 24C10.8954 24 10 24.8954 10 26C10 27.1046 10.8954 28 12 28Z" fill="white"/>
<path d="M26 28C27.1046 28 28 27.1046 28 26C28 24.8954 27.1046 24 26 24C24.8954 24 24 24.8954 24 26C24 27.1046 24.8954 28 26 28Z" fill="white"/>
<path d="M29.55 7.54875C29.4095 7.37691 29.2325 7.2385 29.0319 7.14358C28.8312 7.04867 28.612 6.99962 28.39 7H9.36812L8.985 4.82625C8.94415 4.59471 8.82301 4.38496 8.64288 4.23385C8.46274 4.08275 8.23512 3.99995 8 4H4C3.73478 4 3.48043 4.10536 3.29289 4.29289C3.10536 4.48043 3 4.73478 3 5C3 5.26522 3.10536 5.51957 3.29289 5.70711C3.48043 5.89464 3.73478 6 4 6H7.16125L10.015 22.1737C10.0559 22.4053 10.177 22.615 10.3571 22.7661C10.5373 22.9173 10.7649 23 11 23H27C27.2652 23 27.5196 22.8946 27.7071 22.7071C27.8946 22.5196 28 22.2652 28 22C28 21.7348 27.8946 21.4804 27.7071 21.2929C27.5196 21.1054 27.2652 21 27 21H11.8387L11.4862 19H26.59C26.9368 18.9996 27.2728 18.8793 27.5411 18.6596C27.8094 18.4399 27.9936 18.1343 28.0625 17.7944L29.8625 8.79438C29.9059 8.57656 29.9003 8.35184 29.8463 8.13643C29.7923 7.92102 29.6911 7.72029 29.55 7.54875V7.54875Z" fill="white"/>
</svg>
