<svg width="32" height="32" viewBox="0 0 32 32" fill="none" xmlns="http://www.w3.org/2000/svg">
<path d="M15.3085 23.0399C19.9165 23.0399 23.6285 19.3279 23.6285 14.7199C23.6285 10.1119 19.9165 6.3999 15.3085 6.3999C10.7005 6.3999 6.98848 10.1119 6.98848 14.7199C6.98848 19.3279 10.7005 23.0399 15.3085 23.0399ZM15.3085 7.6799C19.2125 7.6799 22.3485 10.8159 22.3485 14.7199C22.3485 18.6239 19.2125 21.7599 15.3085 21.7599C11.4045 21.7599 8.26848 18.6239 8.26848 14.7199C8.26848 10.8159 11.4045 7.6799 15.3085 7.6799Z" fill="#BABABA"/>
<path d="M11.0835 20.011L5.33631 25.7582L6.24126 26.6631L11.9885 20.9159L11.0835 20.011Z" fill="#BABABA"/>
</svg>
