<svg width="24" height="24" viewBox="0 0 24 24" fill="none" xmlns="http://www.w3.org/2000/svg">
<path d="M6.75 21C7.57843 21 8.25 20.3284 8.25 19.5C8.25 18.6716 7.57843 18 6.75 18C5.92157 18 5.25 18.6716 5.25 19.5C5.25 20.3284 5.92157 21 6.75 21Z" fill="#F8F9FA"/>
<path d="M17.25 21C18.0784 21 18.75 20.3284 18.75 19.5C18.75 18.6716 18.0784 18 17.25 18C16.4216 18 15.75 18.6716 15.75 19.5C15.75 20.3284 16.4216 21 17.25 21Z" fill="#F8F9FA"/>
<path d="M19.9125 5.66156C19.8071 5.53268 19.6744 5.42888 19.5239 5.35769C19.3734 5.2865 19.209 5.24971 19.0425 5.25H4.77609L4.48875 3.61969C4.45811 3.44603 4.36726 3.28872 4.23216 3.17539C4.09706 3.06206 3.92634 2.99996 3.75 3H0.75C0.551088 3 0.360322 3.07902 0.21967 3.21967C0.0790176 3.36032 0 3.55109 0 3.75C0 3.94891 0.0790176 4.13968 0.21967 4.28033C0.360322 4.42098 0.551088 4.5 0.75 4.5H3.12094L5.26125 16.6303C5.29189 16.804 5.38274 16.9613 5.51784 17.0746C5.65294 17.1879 5.82366 17.25 6 17.25H18C18.1989 17.25 18.3897 17.171 18.5303 17.0303C18.671 16.8897 18.75 16.6989 18.75 16.5C18.75 16.3011 18.671 16.1103 18.5303 15.9697C18.3897 15.829 18.1989 15.75 18 15.75H6.62906L6.36469 14.25H17.6925C17.9526 14.2497 18.2046 14.1595 18.4058 13.9947C18.6071 13.8299 18.7452 13.6007 18.7969 13.3458L20.1469 6.59578C20.1794 6.43242 20.1753 6.26388 20.1347 6.10232C20.0942 5.94076 20.0183 5.79022 19.9125 5.66156V5.66156Z" fill="#F8F9FA"/>
</svg>
