<svg width="34" height="32" viewBox="0 0 34 32" fill="none" xmlns="http://www.w3.org/2000/svg">
<path d="M17.0002 19.3846C19.0394 19.3846 20.6925 17.7315 20.6925 15.6923C20.6925 13.6531 19.0394 12 17.0002 12C14.961 12 13.3079 13.6531 13.3079 15.6923C13.3079 17.7315 14.961 19.3846 17.0002 19.3846Z" stroke="white" stroke-width="2" stroke-miterlimit="10"/>
<path d="M4.69231 19.3846C6.73152 19.3846 8.38462 17.7315 8.38462 15.6923C8.38462 13.6531 6.73152 12 4.69231 12C2.6531 12 1 13.6531 1 15.6923C1 17.7315 2.6531 19.3846 4.69231 19.3846Z" stroke="white" stroke-width="2" stroke-miterlimit="10"/>
<path d="M29.3078 19.3846C31.347 19.3846 33.0001 17.7315 33.0001 15.6923C33.0001 13.6531 31.347 12 29.3078 12C27.2686 12 25.6155 13.6531 25.6155 15.6923C25.6155 17.7315 27.2686 19.3846 29.3078 19.3846Z" stroke="white" stroke-width="2" stroke-miterlimit="10"/>
</svg>
