<svg width="16" height="16" viewBox="0 0 16 16" fill="none" xmlns="http://www.w3.org/2000/svg">
<path d="M6.1481 2.5322C6.69626 2.18521 7.34073 2 8 2C8.88406 2 9.7319 2.33271 10.357 2.92493C10.9821 3.51715 11.3333 4.32037 11.3333 5.15789C11.3333 5.78247 11.1378 6.39301 10.7716 6.91233C10.4053 7.43164 9.8847 7.8364 9.27561 8.07541C8.66652 8.31442 7.9963 8.37696 7.3497 8.25511C6.7031 8.13326 6.10915 7.8325 5.64298 7.39086C5.1768 6.94922 4.85933 6.38654 4.73072 5.77397C4.6021 5.1614 4.66811 4.52645 4.9204 3.94942C5.17269 3.37239 5.59994 2.8792 6.1481 2.5322Z" stroke="#212529" stroke-width="1.5"/>
<path d="M14 13.3684V14H2V13.3684C2 12.1959 2.49167 11.0714 3.36683 10.2423C4.242 9.41316 5.42899 8.94737 6.66667 8.94737H9.33333C10.571 8.94737 11.758 9.41316 12.6332 10.2423C13.5083 11.0714 14 12.1959 14 13.3684Z" stroke="#212529" stroke-width="1.5"/>
</svg>
