<svg width="220" height="180" viewBox="0 0 220 180" fill="none" xmlns="http://www.w3.org/2000/svg">
<path d="M218.788 139.393C218.764 139.454 218.715 139.504 218.653 139.531C218.591 139.559 218.52 139.561 218.455 139.539L12.7525 66.2157C12.6883 66.1927 12.6362 66.1462 12.6078 66.0864C12.5793 66.0267 12.5768 65.9586 12.6007 65.8971C12.6246 65.8355 12.673 65.7856 12.7353 65.7582C12.7976 65.7308 12.8687 65.7282 12.933 65.751L218.636 139.074C218.7 139.097 218.752 139.143 218.781 139.203C218.809 139.263 218.812 139.331 218.788 139.393V139.393Z" fill="#686871"/>
<path d="M109.212 0H60.1959C56.3508 0.00416764 52.6645 1.46918 49.9457 4.07364C47.2269 6.6781 45.6975 10.2093 45.6931 13.8926V18.1366C45.5925 18.1101 45.4869 18.1063 45.3845 18.1256C45.2821 18.1449 45.1858 18.1868 45.1032 18.2478C45.0206 18.3089 44.954 18.3875 44.9085 18.4775C44.8631 18.5675 44.8401 18.6663 44.8414 18.7663V22.03C44.8401 22.1299 44.8631 22.2288 44.9085 22.3188C44.954 22.4087 45.0206 22.4874 45.1032 22.5484C45.1858 22.6095 45.2821 22.6513 45.3845 22.6706C45.4869 22.6899 45.5925 22.6862 45.6931 22.6597V27.6014C45.5925 27.5748 45.4869 27.5711 45.3845 27.5904C45.2821 27.6097 45.1858 27.6515 45.1032 27.7126C45.0206 27.7736 44.9539 27.8522 44.9085 27.9422C44.8631 28.0322 44.8401 28.1311 44.8414 28.231V36.3903C44.8401 36.4902 44.8631 36.5891 44.9085 36.6791C44.9539 36.769 45.0206 36.8477 45.1032 36.9087C45.1858 36.9698 45.2821 37.0116 45.3845 37.0309C45.4869 37.0502 45.5925 37.0465 45.6931 37.0199V40.0034C45.5925 39.9769 45.4869 39.9731 45.3845 39.9924C45.2821 40.0117 45.1858 40.0535 45.1032 40.1146C45.0206 40.1757 44.9539 40.2543 44.9085 40.3443C44.8631 40.4343 44.8401 40.5331 44.8414 40.6331V48.7923C44.8401 48.8923 44.8631 48.9911 44.9085 49.0811C44.9539 49.1711 45.0206 49.2497 45.1032 49.3108C45.1858 49.3719 45.2821 49.4137 45.3845 49.433C45.4869 49.4523 45.5925 49.4485 45.6931 49.422V135.585C45.6975 139.268 47.2269 142.799 49.9457 145.404C52.6645 148.008 56.3508 149.473 60.1959 149.477H109.212C113.057 149.473 116.743 148.008 119.462 145.404C122.181 142.799 123.71 139.268 123.714 135.585V13.8926C123.71 10.2093 122.181 6.6781 119.462 4.07364C116.743 1.46918 113.057 0.00416764 109.212 0V0ZM120.648 135.585C120.645 138.489 119.439 141.274 117.295 143.328C115.151 145.382 112.244 146.537 109.212 146.54H60.1959C57.1638 146.537 54.2569 145.382 52.1129 143.328C49.9689 141.274 48.7629 138.489 48.7595 135.585V13.8926C48.7629 10.9881 49.9689 8.20347 52.1129 6.14968C54.2569 4.09589 57.1638 2.94063 60.1959 2.93733H109.212C112.244 2.94062 115.151 4.09589 117.295 6.14968C119.439 8.20347 120.645 10.9881 120.648 13.8926V135.585Z" fill="black"/>
<path d="M109.212 148.172H60.1959C56.7122 148.168 53.3723 146.841 50.9089 144.481C48.4456 142.121 47.0599 138.922 47.056 135.585V13.8925C47.0599 10.5554 48.4456 7.35599 50.9089 4.99627C53.3723 2.63656 56.7122 1.30921 60.1959 1.30542H109.212C112.695 1.30921 116.035 2.63656 118.499 4.99627C120.962 7.35598 122.348 10.5554 122.352 13.8925V135.585C122.348 138.922 120.962 142.121 118.499 144.481C116.035 146.841 112.695 148.168 109.212 148.172V148.172Z" fill="#053DC7"/>
<path d="M110.423 146.214H58.9847C56.635 146.211 54.3824 145.316 52.721 143.724C51.0596 142.133 50.125 139.975 50.1223 137.724V11.7531C50.125 9.50236 51.0595 7.34452 52.721 5.753C54.3824 4.16147 56.635 3.26623 58.9846 3.26368H65.6928C66.0811 3.26411 66.4534 3.41208 66.728 3.67513C67.0026 3.93818 67.1571 4.29484 67.1575 4.66685C67.1588 5.76583 67.6151 6.81944 68.4264 7.59654C69.2376 8.37363 70.3375 8.81074 71.4847 8.81197H97.2415C98.3887 8.81074 99.4886 8.37363 100.3 7.59654C101.111 6.81944 101.567 5.76582 101.569 4.66684C101.569 4.29483 101.724 3.93818 101.998 3.67513C102.273 3.41207 102.645 3.2641 103.033 3.26367H110.423C112.773 3.26622 115.025 4.16146 116.687 5.75299C118.348 7.34451 119.283 9.50235 119.285 11.7531V137.724C119.283 139.975 118.348 142.133 116.687 143.724C115.025 145.316 112.773 146.211 110.423 146.214V146.214Z" fill="white"/>
<path d="M86.9184 6.11945H80.7857C80.605 6.11945 80.4317 6.05068 80.3039 5.92826C80.1761 5.80585 80.1043 5.63982 80.1043 5.46671C80.1043 5.29359 80.1761 5.12756 80.3039 5.00515C80.4317 4.88273 80.605 4.81396 80.7857 4.81396H86.9184C87.0991 4.81396 87.2725 4.88273 87.4002 5.00515C87.528 5.12756 87.5998 5.29359 87.5998 5.46671C87.5998 5.63982 87.528 5.80585 87.4002 5.92826C87.2725 6.05068 87.0991 6.11945 86.9184 6.11945V6.11945Z" fill="white"/>
<path d="M91.1772 5.95621C91.3654 5.95621 91.5179 5.81009 91.5179 5.62984C91.5179 5.44959 91.3654 5.30347 91.1772 5.30347C90.9891 5.30347 90.8365 5.44959 90.8365 5.62984C90.8365 5.81009 90.9891 5.95621 91.1772 5.95621Z" fill="white"/>
<path d="M120.942 28.7603H48.3975V29.5041H120.942V28.7603Z" fill="#053DC7"/>
<path d="M120.942 43.6365H48.3975V44.3803H120.942V43.6365Z" fill="#053DC7"/>
<path d="M120.942 74.3801H48.3975V75.1239H120.942V74.3801Z" fill="#053DC7"/>
<path d="M120.942 105.124H48.3975V105.868H120.942V105.124Z" fill="#053DC7"/>
<path d="M120.942 129.174H48.3975V129.917H120.942V129.174Z" fill="#053DC7"/>
<path d="M101.081 29.1323H100.305V74.7522H101.081V29.1323Z" fill="#053DC7"/>
<path d="M64.7645 74.7388H63.9881V129.546H64.7645V74.7388Z" fill="#053DC7"/>
<path d="M119.285 89.7725H64.3763V90.5163H119.285V89.7725Z" fill="#053DC7"/>
<path d="M101.165 129.545H100.388V146.214H101.165V129.545Z" fill="#053DC7"/>
<path d="M100.564 59.3127H49.9929V60.0565H100.564V59.3127Z" fill="#053DC7"/>
<path d="M60.554 2.79365L59.8377 3.08081L71.2815 29.2757L71.9978 28.9886L60.554 2.79365Z" fill="#053DC7"/>
<path d="M95.7989 8.81201H95.0224V29.1323H95.7989V8.81201Z" fill="#053DC7"/>
<path d="M115.821 40.4132C115.821 47.0778 105.064 62.6073 101.921 67.0033C101.826 67.1362 101.699 67.245 101.55 67.3201C101.402 67.3952 101.236 67.4345 101.068 67.4345C100.9 67.4345 100.734 67.3952 100.586 67.3201C100.437 67.245 100.31 67.1362 100.215 67.0033C97.0717 62.6073 86.3151 47.0778 86.3151 40.4132C86.3151 36.6651 87.8694 33.0706 90.6362 30.4202C93.4029 27.7699 97.1553 26.281 101.068 26.281C104.981 26.281 108.733 27.7699 111.5 30.4202C114.267 33.0706 115.821 36.6651 115.821 40.4132Z" fill="#053DC7"/>
<path d="M101.068 46.6116C105.213 46.6116 108.574 43.3925 108.574 39.4215C108.574 35.4506 105.213 32.2314 101.068 32.2314C96.9227 32.2314 93.5622 35.4506 93.5622 39.4215C93.5622 43.3925 96.9227 46.6116 101.068 46.6116Z" fill="white"/>
<path d="M100.576 74.9658L72.1508 129.371L72.8451 129.703L101.271 75.2987L100.576 74.9658Z" fill="#053DC7"/>
<path d="M141.514 86.9331C141.849 87.1057 142.22 87.2058 142.6 87.2263C142.98 87.2469 143.36 87.1874 143.713 87.0521C144.066 86.9167 144.384 86.7088 144.644 86.443C144.905 86.1772 145.101 85.86 145.22 85.5136L154.467 85.3605L151.752 81.5613L143.387 82.2892C142.766 82.137 142.109 82.2083 141.54 82.4893C140.97 82.7704 140.528 83.2419 140.297 83.8143C140.066 84.3867 140.063 85.0204 140.287 85.5952C140.511 86.17 140.948 86.646 141.514 86.9331H141.514Z" fill="#FFB8B8"/>
<path d="M147.066 86.8225C146.922 86.8225 146.78 86.7947 146.649 86.7408C146.517 86.6868 146.398 86.6079 146.299 86.5087C146.2 86.4095 146.122 86.2921 146.072 86.1636C146.022 86.0351 145.999 85.8982 146.005 85.761L146.192 81.6989C146.202 81.4571 146.302 81.2267 146.475 81.0496C146.647 80.8725 146.88 80.7605 147.131 80.7338L157.844 79.5569L157.485 86.3259L147.118 86.821C147.101 86.822 147.083 86.8225 147.066 86.8225Z" fill="#053DC7"/>
<path d="M160.113 142.501L157.097 143.445L151.861 132.749L156.313 131.356L160.113 142.501Z" fill="#FFB8B8"/>
<path d="M161.837 145.061L152.111 148.104L152.071 147.986C151.909 147.51 151.846 147.008 151.886 146.508C151.926 146.009 152.069 145.522 152.306 145.075C152.542 144.629 152.869 144.231 153.266 143.905C153.663 143.579 154.123 143.331 154.62 143.176L154.62 143.176L160.561 141.317L161.837 145.061Z" fill="#053DC7"/>
<path d="M168.997 146.974L165.824 146.974L164.315 135.25L168.998 135.25L168.997 146.974Z" fill="#FFB8B8"/>
<path d="M169.806 149.921L159.575 149.92V149.796C159.575 149.295 159.678 148.799 159.878 148.337C160.078 147.874 160.372 147.453 160.741 147.099C161.111 146.745 161.55 146.464 162.033 146.272C162.517 146.08 163.034 145.982 163.557 145.982H163.558L169.807 145.982L169.806 149.921Z" fill="#053DC7"/>
<path d="M164.178 144.121C163.918 144.12 163.668 144.029 163.474 143.864C163.28 143.699 163.156 143.472 163.125 143.225L159.034 110.462L153.045 119.671L160.072 136.872C160.167 137.109 160.167 137.373 160.07 137.61C159.974 137.848 159.788 138.042 159.55 138.155L153.589 140.949C153.453 141.013 153.305 141.048 153.153 141.052C153.002 141.057 152.851 141.03 152.712 140.973C152.572 140.917 152.447 140.833 152.344 140.726C152.241 140.62 152.163 140.493 152.115 140.356L145.51 121.238C145.012 119.799 144.947 118.255 145.322 116.783L149.593 99.9924L149.643 99.9662L159.271 94.9143L159.327 94.9337L170.665 98.898L169.478 120.423L170.341 142.764C170.352 143.029 170.255 143.289 170.068 143.485C169.882 143.682 169.623 143.801 169.346 143.816L164.244 144.119C164.222 144.12 164.2 144.121 164.178 144.121Z" fill="#053DC7"/>
<path d="M157.932 106.373C156.238 106.373 154.811 105.91 153.918 104.735L153.889 104.698L154.467 98.8895L149.328 101.622C149.221 101.679 149.099 101.703 148.978 101.691C148.857 101.679 148.742 101.631 148.65 101.555C148.558 101.479 148.492 101.377 148.462 101.264C148.432 101.151 148.439 101.032 148.482 100.923L154.891 84.6188L159.122 71.3376C159.332 70.2746 159.874 69.2978 160.677 68.5364C161.479 67.7751 162.504 67.2651 163.615 67.0741V67.0741C167.385 66.4108 169.63 67.6293 172.223 70.3332C172.85 70.9911 173.312 71.7775 173.573 72.6324C173.834 73.4874 173.888 74.3882 173.731 75.2662L171.278 88.6944L171.999 100.734C172.054 100.942 172.039 101.161 171.956 101.36C171.874 101.559 171.728 101.728 171.539 101.842C169.534 103.064 163.388 106.372 157.932 106.373Z" fill="#056DC7"/>
<path d="M166.508 65.0631C170.019 65.0631 172.865 62.3367 172.865 58.9735C172.865 55.6104 170.019 52.884 166.508 52.884C162.998 52.884 160.151 55.6104 160.151 58.9735C160.151 62.3367 162.998 65.0631 166.508 65.0631Z" fill="#FFB8B8"/>
<path d="M168.164 102.381C168.51 102.229 168.817 102.007 169.063 101.729C169.31 101.451 169.489 101.125 169.59 100.773C169.69 100.422 169.709 100.053 169.645 99.6941C169.581 99.3349 169.435 98.9935 169.218 98.694L174.67 91.537L169.869 91.3188L165.428 98.1487C164.927 98.531 164.59 99.0761 164.48 99.6807C164.371 100.285 164.496 100.907 164.834 101.429C165.171 101.951 165.696 102.336 166.31 102.511C166.924 102.687 167.584 102.641 168.164 102.381V102.381Z" fill="#FFB8B8"/>
<path d="M171.117 98.3425C170.851 98.3787 170.58 98.3171 170.36 98.1699L166.751 95.7589C166.534 95.6151 166.381 95.3987 166.322 95.1523C166.263 94.9059 166.302 94.6473 166.433 94.4274L172.858 83.4759L166.395 76.024C166.056 75.6327 165.805 75.1779 165.66 74.6888C165.514 74.1996 165.476 73.6867 165.548 73.1827C165.62 72.6787 165.801 72.1946 166.08 71.7613C166.358 71.328 166.727 70.9549 167.164 70.6658C167.601 70.3767 168.096 70.178 168.618 70.0822C169.14 69.9864 169.676 69.9956 170.194 70.1094C170.712 70.2231 171.199 70.4388 171.625 70.7428C172.051 71.0468 172.406 71.4324 172.668 71.875L179.803 83.9397C179.854 84.0256 179.88 84.1226 179.88 84.2212C179.88 84.3198 179.854 84.4167 179.803 84.5025L171.889 97.8384C171.816 97.9613 171.717 98.0682 171.599 98.1524C171.48 98.2366 171.345 98.2963 171.201 98.3276C171.173 98.3339 171.145 98.3387 171.117 98.3425Z" fill="#053DC7"/>
<path d="M163.968 58.1961C163.339 57.7462 162.468 57.8164 161.722 57.5806C161.278 57.4402 160.881 57.1905 160.569 56.8565C160.258 56.5225 160.044 56.116 159.948 55.6777C159.853 55.2393 159.879 54.7847 160.025 54.3592C160.171 53.9338 160.431 53.5526 160.779 53.2537C161.584 52.5626 162.73 52.4058 163.803 52.2793C165.273 52.1061 166.757 51.9326 168.231 52.0703C169.705 52.2081 171.189 52.685 172.266 53.6585C173.454 54.7318 174.039 56.3296 174.043 57.8939C174.002 59.4655 173.552 61.0024 172.733 62.365C172.48 62.8828 172.099 63.3335 171.622 63.6776C171.126 63.9912 170.428 64.0732 169.95 63.7346C169.537 63.442 169.386 62.9293 169.2 62.471C169.013 62.0127 168.695 61.5245 168.187 61.4538C167.532 61.3627 167.033 62.0001 166.409 62.2087C165.535 62.5004 164.565 61.8552 164.209 61.0375C163.853 60.2199 163.946 59.2947 164.046 58.4139" fill="black"/>
<path d="M220 149.752C220 149.818 219.972 149.881 219.924 149.927C219.875 149.974 219.81 150 219.741 150H0.258824C0.190179 150 0.124346 149.974 0.0758075 149.927C0.0272686 149.881 0 149.818 0 149.752C0 149.686 0.0272686 149.623 0.0758075 149.577C0.124346 149.53 0.190179 149.504 0.258824 149.504H219.741C219.81 149.504 219.875 149.531 219.924 149.577C219.972 149.623 220 149.686 220 149.752Z" fill="#686871"/>
<path d="M101.068 77.8513C102.926 77.8513 104.433 76.4083 104.433 74.6282C104.433 72.8481 102.926 71.405 101.068 71.405C99.2098 71.405 97.7034 72.8481 97.7034 74.6282C97.7034 76.4083 99.2098 77.8513 101.068 77.8513Z" fill="#053DC7"/>
<path d="M148.438 39.3871C147.033 41.1811 140.863 43.2803 139.09 43.8554C139.036 43.8728 138.979 43.8775 138.923 43.8689C138.867 43.8604 138.814 43.839 138.769 43.8064C138.724 43.7739 138.688 43.7313 138.663 43.6824C138.639 43.6334 138.628 43.5795 138.63 43.5254C138.711 41.7338 139.09 35.4722 140.495 33.6782C141.286 32.6693 142.462 32.0024 143.765 31.8243C145.069 31.6462 146.393 31.9714 147.446 32.7285C148.5 33.4855 149.196 34.6123 149.382 35.8611C149.568 37.1098 149.228 38.3782 148.438 39.3871V39.3871Z" fill="#686871"/>
<path d="M144.676 38.6854C146.071 38.6854 147.202 37.6021 147.202 36.2657C147.202 34.9293 146.071 33.8459 144.676 33.8459C143.281 33.8459 142.15 34.9293 142.15 36.2657C142.15 37.6021 143.281 38.6854 144.676 38.6854Z" fill="white"/>
<path d="M137.252 46.8276C137.878 46.8276 138.385 46.342 138.385 45.7429C138.385 45.1438 137.878 44.6582 137.252 44.6582C136.627 44.6582 136.12 45.1438 136.12 45.7429C136.12 46.342 136.627 46.8276 137.252 46.8276Z" fill="#686871"/>
<path d="M25.2811 88.5968C27.3489 91.6231 27.2828 101.737 27.2193 104.629C27.2175 104.716 27.1935 104.801 27.1493 104.878C27.1051 104.954 27.0421 105.019 26.9658 105.067C26.8895 105.115 26.8022 105.144 26.7114 105.152C26.6206 105.161 26.5291 105.148 26.4448 105.114C23.6534 104.013 13.9506 100.024 11.8828 96.9974C11.3062 96.1547 10.9086 95.2114 10.7127 94.2214C10.5168 93.2314 10.5264 92.2142 10.7411 91.2278C10.9558 90.2413 11.3712 89.3051 11.9638 88.4726C12.5563 87.6401 13.3143 86.9275 14.1944 86.3757C15.0745 85.8239 16.0595 85.4436 17.093 85.2566C18.1266 85.0695 19.1886 85.0794 20.2182 85.2857C21.2477 85.492 22.2248 85.8906 23.0935 86.4587C23.9623 87.0268 24.7056 87.7534 25.2811 88.5968V88.5968Z" fill="#686871"/>
<path d="M18.2743 96.2488C20.524 96.2488 22.3478 94.5018 22.3478 92.3467C22.3478 90.1916 20.524 88.4446 18.2743 88.4446C16.0245 88.4446 14.2008 90.1916 14.2008 92.3467C14.2008 94.5018 16.0245 96.2488 18.2743 96.2488Z" fill="white"/>
<path d="M29.1978 110.083C30.2063 110.083 31.0239 109.3 31.0239 108.334C31.0239 107.368 30.2063 106.584 29.1978 106.584C28.1893 106.584 27.3717 107.368 27.3717 108.334C27.3717 109.3 28.1893 110.083 29.1978 110.083Z" fill="#686871"/>
<path d="M48.3739 164.332H44.8739L44.1839 165.952H42.8439L45.9939 158.952H47.2739L50.4339 165.952H49.0739L48.3739 164.332ZM47.9439 163.312L46.6239 160.252L45.3139 163.312H47.9439ZM53.3841 163.662L52.4541 164.542V165.952H51.2041V158.532H52.4541V163.012L55.0441 160.612H56.5441L54.3141 162.852L56.7541 165.952H55.2341L53.3841 163.662ZM62.6339 160.612V165.952H61.4439V165.272C61.2439 165.512 60.9939 165.699 60.6939 165.832C60.3939 165.959 60.0705 166.022 59.7239 166.022C59.0105 166.022 58.4472 165.826 58.0339 165.432C57.6272 165.032 57.4239 164.442 57.4239 163.662V160.612H58.6739V163.492C58.6739 163.972 58.7805 164.332 58.9939 164.572C59.2139 164.806 59.5239 164.922 59.9239 164.922C60.3705 164.922 60.7239 164.786 60.9839 164.512C61.2505 164.232 61.3839 163.832 61.3839 163.312V160.612H62.6339ZM65.4605 161.392C65.8205 160.832 66.4538 160.552 67.3605 160.552V161.742C67.2538 161.722 67.1572 161.712 67.0705 161.712C66.5838 161.712 66.2038 161.856 65.9305 162.142C65.6572 162.422 65.5205 162.829 65.5205 163.362V165.952H64.2705V160.612H65.4605V161.392ZM70.4316 160.552C71.2183 160.552 71.8183 160.742 72.2316 161.122C72.6516 161.496 72.8616 162.062 72.8616 162.822V165.952H71.6816V165.302C71.5283 165.536 71.3083 165.716 71.0216 165.842C70.7416 165.962 70.4016 166.022 70.0016 166.022C69.6016 166.022 69.2516 165.956 68.9516 165.822C68.6516 165.682 68.4183 165.492 68.2516 165.252C68.0916 165.006 68.0116 164.729 68.0116 164.422C68.0116 163.942 68.1883 163.559 68.5416 163.272C68.9016 162.979 69.4649 162.832 70.2316 162.832H71.6116V162.752C71.6116 162.379 71.4983 162.092 71.2716 161.892C71.0516 161.692 70.7216 161.592 70.2816 161.592C69.9816 161.592 69.6849 161.639 69.3916 161.732C69.1049 161.826 68.8616 161.956 68.6616 162.122L68.1716 161.212C68.4516 160.999 68.7883 160.836 69.1816 160.722C69.5749 160.609 69.9916 160.552 70.4316 160.552ZM70.2616 165.112C70.5749 165.112 70.8516 165.042 71.0916 164.902C71.3383 164.756 71.5116 164.549 71.6116 164.282V163.662H70.3216C69.6016 163.662 69.2416 163.899 69.2416 164.372C69.2416 164.599 69.3316 164.779 69.5116 164.912C69.6916 165.046 69.9416 165.112 70.2616 165.112ZM77.6758 165.662C77.5291 165.782 77.3491 165.872 77.1358 165.932C76.9291 165.992 76.7091 166.022 76.4758 166.022C75.8891 166.022 75.4358 165.869 75.1158 165.562C74.7958 165.256 74.6358 164.809 74.6358 164.222V161.652H73.7558V160.652H74.6358V159.432H75.8858V160.652H77.3158V161.652H75.8858V164.192C75.8858 164.452 75.9491 164.652 76.0758 164.792C76.2025 164.926 76.3858 164.992 76.6258 164.992C76.9058 164.992 77.1391 164.919 77.3258 164.772L77.6758 165.662ZM86.6978 158.532V165.952H85.4978V165.262C85.2911 165.516 85.0344 165.706 84.7278 165.832C84.4278 165.959 84.0944 166.022 83.7278 166.022C83.2144 166.022 82.7511 165.909 82.3378 165.682C81.9311 165.456 81.6111 165.136 81.3778 164.722C81.1444 164.302 81.0278 163.822 81.0278 163.282C81.0278 162.742 81.1444 162.266 81.3778 161.852C81.6111 161.439 81.9311 161.119 82.3378 160.892C82.7511 160.666 83.2144 160.552 83.7278 160.552C84.0811 160.552 84.4044 160.612 84.6978 160.732C84.9911 160.852 85.2411 161.032 85.4478 161.272V158.532H86.6978ZM83.8778 164.952C84.1778 164.952 84.4478 164.886 84.6878 164.752C84.9278 164.612 85.1178 164.416 85.2578 164.162C85.3978 163.909 85.4678 163.616 85.4678 163.282C85.4678 162.949 85.3978 162.656 85.2578 162.402C85.1178 162.149 84.9278 161.956 84.6878 161.822C84.4478 161.682 84.1778 161.612 83.8778 161.612C83.5778 161.612 83.3078 161.682 83.0678 161.822C82.8278 161.956 82.6378 162.149 82.4978 162.402C82.3578 162.656 82.2878 162.949 82.2878 163.282C82.2878 163.616 82.3578 163.909 82.4978 164.162C82.6378 164.416 82.8278 164.612 83.0678 164.752C83.3078 164.886 83.5778 164.952 83.8778 164.952ZM90.373 160.552C91.1597 160.552 91.7597 160.742 92.173 161.122C92.593 161.496 92.803 162.062 92.803 162.822V165.952H91.623V165.302C91.4697 165.536 91.2497 165.716 90.963 165.842C90.683 165.962 90.343 166.022 89.943 166.022C89.543 166.022 89.193 165.956 88.893 165.822C88.593 165.682 88.3597 165.492 88.193 165.252C88.033 165.006 87.953 164.729 87.953 164.422C87.953 163.942 88.1297 163.559 88.483 163.272C88.843 162.979 89.4063 162.832 90.173 162.832H91.553V162.752C91.553 162.379 91.4397 162.092 91.213 161.892C90.993 161.692 90.663 161.592 90.223 161.592C89.923 161.592 89.6263 161.639 89.333 161.732C89.0463 161.826 88.803 161.956 88.603 162.122L88.113 161.212C88.393 160.999 88.7297 160.836 89.123 160.722C89.5163 160.609 89.933 160.552 90.373 160.552ZM90.203 165.112C90.5163 165.112 90.793 165.042 91.033 164.902C91.2797 164.756 91.453 164.549 91.553 164.282V163.662H90.263C89.543 163.662 89.183 163.899 89.183 164.372C89.183 164.599 89.273 164.779 89.453 164.912C89.633 165.046 89.883 165.112 90.203 165.112ZM94.4072 158.532H95.6572V165.952H94.4072V158.532ZM99.3378 160.552C100.125 160.552 100.725 160.742 101.138 161.122C101.558 161.496 101.768 162.062 101.768 162.822V165.952H100.588V165.302C100.435 165.536 100.215 165.716 99.9278 165.842C99.6478 165.962 99.3078 166.022 98.9078 166.022C98.5078 166.022 98.1578 165.956 97.8578 165.822C97.5578 165.682 97.3245 165.492 97.1578 165.252C96.9978 165.006 96.9178 164.729 96.9178 164.422C96.9178 163.942 97.0945 163.559 97.4478 163.272C97.8078 162.979 98.3712 162.832 99.1378 162.832H100.518V162.752C100.518 162.379 100.405 162.092 100.178 161.892C99.9578 161.692 99.6278 161.592 99.1878 161.592C98.8878 161.592 98.5912 161.639 98.2978 161.732C98.0112 161.826 97.7678 161.956 97.5678 162.122L97.0778 161.212C97.3578 160.999 97.6945 160.836 98.0878 160.722C98.4812 160.609 98.8978 160.552 99.3378 160.552ZM99.1678 165.112C99.4812 165.112 99.7578 165.042 99.9978 164.902C100.245 164.756 100.418 164.549 100.518 164.282V163.662H99.2278C98.5078 163.662 98.1478 163.899 98.1478 164.372C98.1478 164.599 98.2378 164.779 98.4178 164.912C98.5978 165.046 98.8478 165.112 99.1678 165.112ZM110.112 160.552C110.785 160.552 111.319 160.749 111.712 161.142C112.105 161.529 112.302 162.112 112.302 162.892V165.952H111.052V163.052C111.052 162.586 110.949 162.236 110.742 162.002C110.535 161.762 110.239 161.642 109.852 161.642C109.432 161.642 109.095 161.782 108.842 162.062C108.589 162.336 108.462 162.729 108.462 163.242V165.952H107.212V163.052C107.212 162.586 107.109 162.236 106.902 162.002C106.695 161.762 106.399 161.642 106.012 161.642C105.585 161.642 105.245 161.779 104.992 162.052C104.745 162.326 104.622 162.722 104.622 163.242V165.952H103.372V160.612H104.562V161.292C104.762 161.052 105.012 160.869 105.312 160.742C105.612 160.616 105.945 160.552 106.312 160.552C106.712 160.552 107.065 160.629 107.372 160.782C107.685 160.929 107.932 161.149 108.112 161.442C108.332 161.162 108.615 160.946 108.962 160.792C109.309 160.632 109.692 160.552 110.112 160.552ZM119.623 160.552C120.143 160.552 120.606 160.666 121.013 160.892C121.426 161.119 121.75 161.439 121.983 161.852C122.216 162.266 122.333 162.742 122.333 163.282C122.333 163.822 122.216 164.302 121.983 164.722C121.75 165.136 121.426 165.456 121.013 165.682C120.606 165.909 120.143 166.022 119.623 166.022C118.903 166.022 118.333 165.782 117.913 165.302V167.892H116.663V160.612H117.853V161.312C118.06 161.059 118.313 160.869 118.613 160.742C118.92 160.616 119.256 160.552 119.623 160.552ZM119.483 164.952C119.943 164.952 120.32 164.799 120.613 164.492C120.913 164.186 121.063 163.782 121.063 163.282C121.063 162.782 120.913 162.379 120.613 162.072C120.32 161.766 119.943 161.612 119.483 161.612C119.183 161.612 118.913 161.682 118.673 161.822C118.433 161.956 118.243 162.149 118.103 162.402C117.963 162.656 117.893 162.949 117.893 163.282C117.893 163.616 117.963 163.909 118.103 164.162C118.243 164.416 118.433 164.612 118.673 164.752C118.913 164.886 119.183 164.952 119.483 164.952ZM128.539 163.312C128.539 163.399 128.532 163.522 128.519 163.682H124.329C124.402 164.076 124.592 164.389 124.899 164.622C125.212 164.849 125.599 164.962 126.059 164.962C126.645 164.962 127.129 164.769 127.509 164.382L128.179 165.152C127.939 165.439 127.635 165.656 127.269 165.802C126.902 165.949 126.489 166.022 126.029 166.022C125.442 166.022 124.925 165.906 124.479 165.672C124.032 165.439 123.685 165.116 123.439 164.702C123.199 164.282 123.079 163.809 123.079 163.282C123.079 162.762 123.195 162.296 123.429 161.882C123.669 161.462 123.999 161.136 124.419 160.902C124.839 160.669 125.312 160.552 125.839 160.552C126.359 160.552 126.822 160.669 127.229 160.902C127.642 161.129 127.962 161.452 128.189 161.872C128.422 162.286 128.539 162.766 128.539 163.312ZM125.839 161.552C125.439 161.552 125.099 161.672 124.819 161.912C124.545 162.146 124.379 162.459 124.319 162.852H127.349C127.295 162.466 127.132 162.152 126.859 161.912C126.585 161.672 126.245 161.552 125.839 161.552ZM130.929 161.392C131.289 160.832 131.923 160.552 132.829 160.552V161.742C132.723 161.722 132.626 161.712 132.539 161.712C132.053 161.712 131.673 161.856 131.399 162.142C131.126 162.422 130.989 162.829 130.989 163.362V165.952H129.739V160.612H130.929V161.392ZM133.388 167.962C132.862 167.962 132.462 167.859 132.188 167.652L132.548 166.722C132.735 166.862 132.978 166.932 133.278 166.932C133.512 166.932 133.688 166.859 133.808 166.712C133.935 166.572 133.998 166.362 133.998 166.082V160.612H135.248V166.052C135.248 166.646 135.085 167.112 134.758 167.452C134.432 167.792 133.975 167.962 133.388 167.962ZM134.618 159.732C134.392 159.732 134.202 159.662 134.048 159.522C133.895 159.376 133.818 159.196 133.818 158.982C133.818 158.769 133.895 158.592 134.048 158.452C134.202 158.306 134.392 158.232 134.618 158.232C134.845 158.232 135.035 158.302 135.188 158.442C135.342 158.576 135.418 158.746 135.418 158.952C135.418 159.172 135.342 159.359 135.188 159.512C135.042 159.659 134.852 159.732 134.618 159.732ZM138.928 160.552C139.714 160.552 140.314 160.742 140.728 161.122C141.148 161.496 141.358 162.062 141.358 162.822V165.952H140.178V165.302C140.024 165.536 139.804 165.716 139.518 165.842C139.238 165.962 138.898 166.022 138.498 166.022C138.098 166.022 137.748 165.956 137.448 165.822C137.148 165.682 136.914 165.492 136.748 165.252C136.588 165.006 136.508 164.729 136.508 164.422C136.508 163.942 136.684 163.559 137.038 163.272C137.398 162.979 137.961 162.832 138.728 162.832H140.108V162.752C140.108 162.379 139.994 162.092 139.768 161.892C139.548 161.692 139.218 161.592 138.778 161.592C138.478 161.592 138.181 161.639 137.888 161.732C137.601 161.826 137.358 161.956 137.158 162.122L136.668 161.212C136.948 160.999 137.284 160.836 137.678 160.722C138.071 160.609 138.488 160.552 138.928 160.552ZM138.758 165.112C139.071 165.112 139.348 165.042 139.588 164.902C139.834 164.756 140.008 164.549 140.108 164.282V163.662H138.818C138.098 163.662 137.738 163.899 137.738 164.372C137.738 164.599 137.828 164.779 138.008 164.912C138.188 165.046 138.438 165.112 138.758 165.112ZM142.962 158.532H144.212V165.952H142.962V158.532ZM147.893 160.552C148.679 160.552 149.279 160.742 149.693 161.122C150.113 161.496 150.323 162.062 150.323 162.822V165.952H149.143V165.302C148.989 165.536 148.769 165.716 148.483 165.842C148.203 165.962 147.863 166.022 147.463 166.022C147.063 166.022 146.713 165.956 146.413 165.822C146.113 165.682 145.879 165.492 145.713 165.252C145.553 165.006 145.473 164.729 145.473 164.422C145.473 163.942 145.649 163.559 146.003 163.272C146.363 162.979 146.926 162.832 147.693 162.832H149.073V162.752C149.073 162.379 148.959 162.092 148.733 161.892C148.513 161.692 148.183 161.592 147.743 161.592C147.443 161.592 147.146 161.639 146.853 161.732C146.566 161.826 146.323 161.956 146.123 162.122L145.633 161.212C145.913 160.999 146.249 160.836 146.643 160.722C147.036 160.609 147.453 160.552 147.893 160.552ZM147.723 165.112C148.036 165.112 148.313 165.042 148.553 164.902C148.799 164.756 148.973 164.549 149.073 164.282V163.662H147.783C147.063 163.662 146.703 163.899 146.703 164.372C146.703 164.599 146.793 164.779 146.973 164.912C147.153 165.046 147.403 165.112 147.723 165.112ZM154.957 160.552C155.63 160.552 156.17 160.749 156.577 161.142C156.983 161.536 157.187 162.119 157.187 162.892V165.952H155.937V163.052C155.937 162.586 155.827 162.236 155.607 162.002C155.387 161.762 155.073 161.642 154.667 161.642C154.207 161.642 153.843 161.782 153.577 162.062C153.31 162.336 153.177 162.732 153.177 163.252V165.952H151.927V160.612H153.117V161.302C153.323 161.056 153.583 160.869 153.897 160.742C154.21 160.616 154.563 160.552 154.957 160.552ZM160.812 160.552C161.599 160.552 162.199 160.742 162.612 161.122C163.032 161.496 163.242 162.062 163.242 162.822V165.952H162.062V165.302C161.909 165.536 161.689 165.716 161.402 165.842C161.122 165.962 160.782 166.022 160.382 166.022C159.982 166.022 159.632 165.956 159.332 165.822C159.032 165.682 158.799 165.492 158.632 165.252C158.472 165.006 158.392 164.729 158.392 164.422C158.392 163.942 158.569 163.559 158.922 163.272C159.282 162.979 159.846 162.832 160.612 162.832H161.992V162.752C161.992 162.379 161.879 162.092 161.652 161.892C161.432 161.692 161.102 161.592 160.662 161.592C160.362 161.592 160.066 161.639 159.772 161.732C159.486 161.826 159.242 161.956 159.042 162.122L158.552 161.212C158.832 160.999 159.169 160.836 159.562 160.722C159.956 160.609 160.372 160.552 160.812 160.552ZM160.642 165.112C160.956 165.112 161.232 165.042 161.472 164.902C161.719 164.756 161.892 164.549 161.992 164.282V163.662H160.702C159.982 163.662 159.622 163.899 159.622 164.372C159.622 164.599 159.712 164.779 159.892 164.912C160.072 165.046 160.322 165.112 160.642 165.112ZM167.877 160.552C168.55 160.552 169.09 160.749 169.497 161.142C169.903 161.536 170.107 162.119 170.107 162.892V165.952H168.857V163.052C168.857 162.586 168.747 162.236 168.527 162.002C168.307 161.762 167.993 161.642 167.587 161.642C167.127 161.642 166.763 161.782 166.497 162.062C166.23 162.336 166.097 162.732 166.097 163.252V165.952H164.847V160.612H166.037V161.302C166.243 161.056 166.503 160.869 166.817 160.742C167.13 160.616 167.483 160.552 167.877 160.552ZM71.2686 172.552C71.7886 172.552 72.2519 172.666 72.6586 172.892C73.0719 173.119 73.3953 173.439 73.6286 173.852C73.8619 174.266 73.9786 174.742 73.9786 175.282C73.9786 175.822 73.8619 176.302 73.6286 176.722C73.3953 177.136 73.0719 177.456 72.6586 177.682C72.2519 177.909 71.7886 178.022 71.2686 178.022C70.9019 178.022 70.5653 177.959 70.2586 177.832C69.9586 177.706 69.7053 177.516 69.4986 177.262V177.952H68.3086V170.532H69.5586V173.262C69.7719 173.029 70.0219 172.852 70.3086 172.732C70.6019 172.612 70.9219 172.552 71.2686 172.552ZM71.1286 176.952C71.5886 176.952 71.9653 176.799 72.2586 176.492C72.5586 176.186 72.7086 175.782 72.7086 175.282C72.7086 174.782 72.5586 174.379 72.2586 174.072C71.9653 173.766 71.5886 173.612 71.1286 173.612C70.8286 173.612 70.5586 173.682 70.3186 173.822C70.0786 173.956 69.8886 174.149 69.7486 174.402C69.6086 174.656 69.5386 174.949 69.5386 175.282C69.5386 175.616 69.6086 175.909 69.7486 176.162C69.8886 176.416 70.0786 176.612 70.3186 176.752C70.5586 176.886 70.8286 176.952 71.1286 176.952ZM80.1841 175.312C80.1841 175.399 80.1774 175.522 80.1641 175.682H75.9741C76.0474 176.076 76.2374 176.389 76.5441 176.622C76.8574 176.849 77.2441 176.962 77.7041 176.962C78.2907 176.962 78.7741 176.769 79.1541 176.382L79.8241 177.152C79.5841 177.439 79.2807 177.656 78.9141 177.802C78.5474 177.949 78.1341 178.022 77.6741 178.022C77.0874 178.022 76.5707 177.906 76.1241 177.672C75.6774 177.439 75.3307 177.116 75.0841 176.702C74.8441 176.282 74.7241 175.809 74.7241 175.282C74.7241 174.762 74.8407 174.296 75.0741 173.882C75.3141 173.462 75.6441 173.136 76.0641 172.902C76.4841 172.669 76.9574 172.552 77.4841 172.552C78.0041 172.552 78.4674 172.669 78.8741 172.902C79.2874 173.129 79.6074 173.452 79.8341 173.872C80.0674 174.286 80.1841 174.766 80.1841 175.312ZM77.4841 173.552C77.0841 173.552 76.7441 173.672 76.4641 173.912C76.1907 174.146 76.0241 174.459 75.9641 174.852H78.9941C78.9407 174.466 78.7774 174.152 78.5041 173.912C78.2307 173.672 77.8907 173.552 77.4841 173.552ZM82.5748 173.392C82.9348 172.832 83.5681 172.552 84.4748 172.552V173.742C84.3681 173.722 84.2714 173.712 84.1848 173.712C83.6981 173.712 83.3181 173.856 83.0448 174.142C82.7714 174.422 82.6348 174.829 82.6348 175.362V177.952H81.3848V172.612H82.5748V173.392ZM87.2047 178.022C86.7713 178.022 86.348 177.966 85.9347 177.852C85.5213 177.739 85.1913 177.596 84.9447 177.422L85.4247 176.472C85.6647 176.632 85.9513 176.762 86.2847 176.862C86.6247 176.956 86.958 177.002 87.2847 177.002C88.0313 177.002 88.4047 176.806 88.4047 176.412C88.4047 176.226 88.308 176.096 88.1147 176.022C87.928 175.949 87.6247 175.879 87.2047 175.812C86.7647 175.746 86.4047 175.669 86.1247 175.582C85.8513 175.496 85.6113 175.346 85.4047 175.132C85.2047 174.912 85.1047 174.609 85.1047 174.222C85.1047 173.716 85.3147 173.312 85.7347 173.012C86.1613 172.706 86.7347 172.552 87.4547 172.552C87.8213 172.552 88.188 172.596 88.5547 172.682C88.9213 172.762 89.2213 172.872 89.4547 173.012L88.9747 173.962C88.5213 173.696 88.0113 173.562 87.4447 173.562C87.078 173.562 86.798 173.619 86.6047 173.732C86.418 173.839 86.3247 173.982 86.3247 174.162C86.3247 174.362 86.4247 174.506 86.6247 174.592C86.8313 174.672 87.148 174.749 87.5747 174.822C88.0013 174.889 88.3513 174.966 88.6247 175.052C88.898 175.139 89.1313 175.286 89.3247 175.492C89.5247 175.699 89.6247 175.992 89.6247 176.372C89.6247 176.872 89.408 177.272 88.9747 177.572C88.5413 177.872 87.9513 178.022 87.2047 178.022ZM92.7412 172.552C93.5278 172.552 94.1278 172.742 94.5412 173.122C94.9612 173.496 95.1712 174.062 95.1712 174.822V177.952H93.9912V177.302C93.8378 177.536 93.6178 177.716 93.3312 177.842C93.0512 177.962 92.7112 178.022 92.3112 178.022C91.9112 178.022 91.5612 177.956 91.2612 177.822C90.9612 177.682 90.7278 177.492 90.5612 177.252C90.4012 177.006 90.3212 176.729 90.3212 176.422C90.3212 175.942 90.4978 175.559 90.8512 175.272C91.2112 174.979 91.7745 174.832 92.5412 174.832H93.9212V174.752C93.9212 174.379 93.8078 174.092 93.5812 173.892C93.3612 173.692 93.0312 173.592 92.5912 173.592C92.2912 173.592 91.9945 173.639 91.7012 173.732C91.4145 173.826 91.1712 173.956 90.9712 174.122L90.4812 173.212C90.7612 172.999 91.0978 172.836 91.4912 172.722C91.8845 172.609 92.3012 172.552 92.7412 172.552ZM92.5712 177.112C92.8845 177.112 93.1612 177.042 93.4012 176.902C93.6478 176.756 93.8212 176.549 93.9212 176.282V175.662H92.6312C91.9112 175.662 91.5512 175.899 91.5512 176.372C91.5512 176.599 91.6412 176.779 91.8212 176.912C92.0012 177.046 92.2512 177.112 92.5712 177.112ZM103.515 172.552C104.189 172.552 104.722 172.749 105.115 173.142C105.509 173.529 105.705 174.112 105.705 174.892V177.952H104.455V175.052C104.455 174.586 104.352 174.236 104.145 174.002C103.939 173.762 103.642 173.642 103.255 173.642C102.835 173.642 102.499 173.782 102.245 174.062C101.992 174.336 101.865 174.729 101.865 175.242V177.952H100.615V175.052C100.615 174.586 100.512 174.236 100.305 174.002C100.099 173.762 99.8021 173.642 99.4154 173.642C98.9887 173.642 98.6487 173.779 98.3954 174.052C98.1487 174.326 98.0254 174.722 98.0254 175.242V177.952H96.7754V172.612H97.9654V173.292C98.1654 173.052 98.4154 172.869 98.7154 172.742C99.0154 172.616 99.3487 172.552 99.7154 172.552C100.115 172.552 100.469 172.629 100.775 172.782C101.089 172.929 101.335 173.149 101.515 173.442C101.735 173.162 102.019 172.946 102.365 172.792C102.712 172.632 103.095 172.552 103.515 172.552ZM109.343 172.552C110.129 172.552 110.729 172.742 111.143 173.122C111.563 173.496 111.773 174.062 111.773 174.822V177.952H110.593V177.302C110.439 177.536 110.219 177.716 109.933 177.842C109.653 177.962 109.313 178.022 108.913 178.022C108.513 178.022 108.163 177.956 107.863 177.822C107.563 177.682 107.329 177.492 107.163 177.252C107.003 177.006 106.923 176.729 106.923 176.422C106.923 175.942 107.099 175.559 107.453 175.272C107.813 174.979 108.376 174.832 109.143 174.832H110.523V174.752C110.523 174.379 110.409 174.092 110.183 173.892C109.963 173.692 109.633 173.592 109.193 173.592C108.893 173.592 108.596 173.639 108.303 173.732C108.016 173.826 107.773 173.956 107.573 174.122L107.083 173.212C107.363 172.999 107.699 172.836 108.093 172.722C108.486 172.609 108.903 172.552 109.343 172.552ZM109.173 177.112C109.486 177.112 109.763 177.042 110.003 176.902C110.249 176.756 110.423 176.549 110.523 176.282V175.662H109.233C108.513 175.662 108.153 175.899 108.153 176.372C108.153 176.599 108.243 176.779 108.423 176.912C108.603 177.046 108.853 177.112 109.173 177.112ZM121.084 175.662L120.154 176.542V177.952H118.904V170.532H120.154V175.012L122.744 172.612H124.244L122.014 174.852L124.454 177.952H122.934L121.084 175.662ZM127.204 172.552C127.991 172.552 128.591 172.742 129.004 173.122C129.424 173.496 129.634 174.062 129.634 174.822V177.952H128.454V177.302C128.301 177.536 128.081 177.716 127.794 177.842C127.514 177.962 127.174 178.022 126.774 178.022C126.374 178.022 126.024 177.956 125.724 177.822C125.424 177.682 125.191 177.492 125.024 177.252C124.864 177.006 124.784 176.729 124.784 176.422C124.784 175.942 124.961 175.559 125.314 175.272C125.674 174.979 126.237 174.832 127.004 174.832H128.384V174.752C128.384 174.379 128.271 174.092 128.044 173.892C127.824 173.692 127.494 173.592 127.054 173.592C126.754 173.592 126.457 173.639 126.164 173.732C125.877 173.826 125.634 173.956 125.434 174.122L124.944 173.212C125.224 172.999 125.561 172.836 125.954 172.722C126.347 172.609 126.764 172.552 127.204 172.552ZM127.034 177.112C127.347 177.112 127.624 177.042 127.864 176.902C128.111 176.756 128.284 176.549 128.384 176.282V175.662H127.094C126.374 175.662 126.014 175.899 126.014 176.372C126.014 176.599 126.104 176.779 126.284 176.912C126.464 177.046 126.714 177.112 127.034 177.112ZM137.978 172.552C138.652 172.552 139.185 172.749 139.578 173.142C139.972 173.529 140.168 174.112 140.168 174.892V177.952H138.918V175.052C138.918 174.586 138.815 174.236 138.608 174.002C138.402 173.762 138.105 173.642 137.718 173.642C137.298 173.642 136.962 173.782 136.708 174.062C136.455 174.336 136.328 174.729 136.328 175.242V177.952H135.078V175.052C135.078 174.586 134.975 174.236 134.768 174.002C134.562 173.762 134.265 173.642 133.878 173.642C133.452 173.642 133.112 173.779 132.858 174.052C132.612 174.326 132.488 174.722 132.488 175.242V177.952H131.238V172.612H132.428V173.292C132.628 173.052 132.878 172.869 133.178 172.742C133.478 172.616 133.812 172.552 134.178 172.552C134.578 172.552 134.932 172.629 135.238 172.782C135.552 172.929 135.798 173.149 135.978 173.442C136.198 173.162 136.482 172.946 136.828 172.792C137.175 172.632 137.558 172.552 137.978 172.552ZM141.766 172.612H143.016V177.952H141.766V172.612ZM142.396 171.732C142.169 171.732 141.979 171.662 141.826 171.522C141.672 171.376 141.596 171.196 141.596 170.982C141.596 170.769 141.672 170.592 141.826 170.452C141.979 170.306 142.169 170.232 142.396 170.232C142.622 170.232 142.812 170.302 142.966 170.442C143.119 170.576 143.196 170.746 143.196 170.952C143.196 171.172 143.119 171.359 142.966 171.512C142.819 171.659 142.629 171.732 142.396 171.732ZM145.056 178.022C144.83 178.022 144.636 177.946 144.476 177.792C144.316 177.632 144.236 177.432 144.236 177.192C144.236 176.946 144.313 176.746 144.466 176.592C144.626 176.439 144.823 176.362 145.056 176.362C145.29 176.362 145.483 176.439 145.636 176.592C145.796 176.746 145.876 176.946 145.876 177.192C145.876 177.432 145.796 177.632 145.636 177.792C145.476 177.946 145.283 178.022 145.056 178.022Z" fill="black"/>
</svg>
