<svg xmlns="http://www.w3.org/2000/svg" xmlns:xlink="http://www.w3.org/1999/xlink" viewBox="0 0 484.42 490.48"><defs><style>.cls-1{fill:#053dc7;}.cls-2{fill:#05b8c7;}.cls-3{fill:url(#linear-gradient);}</style><linearGradient id="linear-gradient" x1="33.37" y1="153.99" x2="189.14" y2="153.99" gradientUnits="userSpaceOnUse"><stop offset="0" stop-color="#05b8c7"/><stop offset="0.3" stop-color="#0584c7"/><stop offset="0.42" stop-color="#056dc7"/><stop offset="1" stop-color="#053dc7"/></linearGradient></defs><g id="Layer_2" data-name="Layer 2"><g id="Layer_1-2" data-name="Layer 1"><path class="cls-1" d="M6.16,489.83V424.51h10L44.7,472.19H39.47l28.09-47.68h10l.09,65.32H66.16l-.09-47.31H68.5L44.61,482.36H39.19L14.93,442.52h2.8v47.31Z"/><path class="cls-1" d="M117.58,490.48a30.37,30.37,0,0,1-14.51-3.31,24,24,0,0,1-9.61-9.1,25.43,25.43,0,0,1-3.41-13.16,25.91,25.91,0,0,1,3.32-13.2,23.69,23.69,0,0,1,9.14-9,26.83,26.83,0,0,1,13.3-3.26,26.23,26.23,0,0,1,13,3.17,23,23,0,0,1,9,9A27.24,27.24,0,0,1,141,465.19c0,.5,0,1.06,0,1.68s-.08,1.22-.14,1.78H99.29V460.9h35.37l-4.57,2.43a14.39,14.39,0,0,0-1.77-7.56,13.62,13.62,0,0,0-5.09-5.13,14.48,14.48,0,0,0-7.42-1.87,14.64,14.64,0,0,0-7.51,1.87,13.15,13.15,0,0,0-5,5.18,15.93,15.93,0,0,0-1.82,7.79v1.86a15.22,15.22,0,0,0,2,7.94,13.75,13.75,0,0,0,5.79,5.32,19,19,0,0,0,8.58,1.86,20.74,20.74,0,0,0,7.56-1.3,16.14,16.14,0,0,0,6-4.11l6.26,7.18a21.91,21.91,0,0,1-8.45,6A30.21,30.21,0,0,1,117.58,490.48Z"/><path class="cls-1" d="M145.58,449.7v-9.33H178.8v9.33ZM171,490.48q-8.21,0-12.69-4.24t-4.48-12.55V429h11.67v44.43a7.74,7.74,0,0,0,1.82,5.5,6.56,6.56,0,0,0,5.08,2,10.21,10.21,0,0,0,6.53-2.05l3.27,8.3a13.73,13.73,0,0,1-5,2.52A22.61,22.61,0,0,1,171,490.48Z"/><path class="cls-1" d="M206.8,490.48a23.35,23.35,0,0,1-9.8-1.91,15.15,15.15,0,0,1-6.49-5.32,13.53,13.53,0,0,1-2.28-7.7,14.43,14.43,0,0,1,2-7.56,13.55,13.55,0,0,1,6.58-5.32q4.58-1.95,12.13-2h14.47v7.75H209.78q-6,0-8,1.91a6.21,6.21,0,0,0-2.06,4.72,6,6,0,0,0,2.52,5,11.6,11.6,0,0,0,7,1.86,15.13,15.13,0,0,0,7.7-2,11.06,11.06,0,0,0,4.9-5.78l2,7a12.94,12.94,0,0,1-6,6.82A22.23,22.23,0,0,1,206.8,490.48Zm15.68-.65V479.75l-.66-2.14V460c0-3.42-1-6.08-3.08-8s-5.16-2.85-9.33-2.85a26.86,26.86,0,0,0-8.26,1.31,20.19,20.19,0,0,0-6.86,3.64l-4.57-8.49a27.37,27.37,0,0,1,9.56-4.62,42.88,42.88,0,0,1,11.53-1.54q10.83,0,16.75,5.18t5.93,16v29.21Z"/><path class="cls-1" d="M241.79,449.7v-9.33H275v9.33Zm25.39,40.78q-8.22,0-12.7-4.24T250,473.69V429h11.67v44.43a7.78,7.78,0,0,0,1.82,5.5,6.59,6.59,0,0,0,5.09,2,10.23,10.23,0,0,0,6.53-2.05l3.26,8.3a13.65,13.65,0,0,1-5,2.52A22.59,22.59,0,0,1,267.18,490.48Z"/><path class="cls-1" d="M288,489.83V440h11.1v13.72l-1.31-4a15.8,15.8,0,0,1,7.05-7.65,24.88,24.88,0,0,1,12-2.61v11.1a8.49,8.49,0,0,0-1.4-.23c-.43,0-.87-.05-1.3-.05q-6.63,0-10.55,3.88t-3.92,11.52v24.17Z"/><path class="cls-1" d="M338.19,490.48a23.38,23.38,0,0,1-9.8-1.91,15.06,15.06,0,0,1-6.48-5.32,13.46,13.46,0,0,1-2.29-7.7,14.44,14.44,0,0,1,2-7.56,13.51,13.51,0,0,1,6.58-5.32q4.56-1.95,12.13-2H354.8v7.75H341.18q-6,0-8,1.91a6.2,6.2,0,0,0-2,4.72,6,6,0,0,0,2.52,5,11.58,11.58,0,0,0,7,1.86,15.13,15.13,0,0,0,7.7-2,11.1,11.1,0,0,0,4.9-5.78l2,7a13,13,0,0,1-6,6.82A22.27,22.27,0,0,1,338.19,490.48Zm15.68-.65V479.75l-.65-2.14V460q0-5.13-3.08-8t-9.33-2.85a26.81,26.81,0,0,0-8.26,1.31,20.1,20.1,0,0,0-6.86,3.64l-4.58-8.49a27.51,27.51,0,0,1,9.57-4.62,42.77,42.77,0,0,1,11.53-1.54q10.82,0,16.75,5.18t5.92,16v29.21Z"/><path class="cls-1" d="M392.13,489.83,370.76,440h12.13L401.28,484h-6l19-43.95h11.2l-21.37,49.83Z"/><path class="cls-1" d="M454.84,490.48a30.35,30.35,0,0,1-14.51-3.31,24,24,0,0,1-9.61-9.1,25.43,25.43,0,0,1-3.41-13.16,25.91,25.91,0,0,1,3.32-13.2,23.69,23.69,0,0,1,9.14-9,26.83,26.83,0,0,1,13.3-3.26,26.23,26.23,0,0,1,13,3.17,23,23,0,0,1,9,9,27.24,27.24,0,0,1,3.27,13.62c0,.5,0,1.06,0,1.68s-.08,1.22-.14,1.78H436.55V460.9h35.37l-4.57,2.43a14.3,14.3,0,0,0-1.78-7.56,13.6,13.6,0,0,0-5.08-5.13,14.48,14.48,0,0,0-7.42-1.87,14.64,14.64,0,0,0-7.51,1.87,13.15,13.15,0,0,0-5,5.18,15.82,15.82,0,0,0-1.82,7.79v1.86a15.22,15.22,0,0,0,2.05,7.94,13.75,13.75,0,0,0,5.79,5.32,19,19,0,0,0,8.58,1.86,20.74,20.74,0,0,0,7.56-1.3,16.14,16.14,0,0,0,6-4.11l6.26,7.18a21.91,21.91,0,0,1-8.45,6A30.21,30.21,0,0,1,454.84,490.48Z"/><path class="cls-2" d="M.61,232A3.43,3.43,0,0,0,4,235H16.51a5,5,0,0,0,4.93-4.81,179.42,179.42,0,0,1,17-72,3.43,3.43,0,0,0-3.12-4.87H22.71a3.44,3.44,0,0,0-2.86,1.54A116.53,116.53,0,0,0,.61,232Z"/><path class="cls-1" d="M446,158.2a179.66,179.66,0,0,1,17,72,4.93,4.93,0,0,0,4.93,4.81H480.4a3.42,3.42,0,0,0,3.41-3.06,116.45,116.45,0,0,0-19.23-77.08,3.44,3.44,0,0,0-2.87-1.54H449.09A3.43,3.43,0,0,0,446,158.2Z"/><path class="cls-1" d="M444.62,182a194.53,194.53,0,0,0-19.38-42.2,28.94,28.94,0,0,0-12.91-11.44c-21.6-9.7-41.78-14.94-56-14.67-52.45,1-67.25,26.17-107.15,28.71h-.07q-3.41.22-7.06.21c-45-.2-57.31-27.8-112.2-28.92-1.48,0-3,0-4.63.1a92.45,92.45,0,0,0-13.42,1.84,1.52,1.52,0,0,0-1.21,1.64c3.75,34.12,45.43,94.65,108,154q6.28,6,12.84,11.91c74,67,175.8,118.91,197.07,96.95,5.18-5.35,7.92-17.48-5.27-48.16,7.37,21.55,4.53,30.42.44,34.51-20.36,20.37-116.29-33.18-183-93.49l-2.71-2.46a1.51,1.51,0,0,1,.94-2.61c2.31-.13,3.85-.13,4.25-.13a97.39,97.39,0,0,1,21.6,2.67c26.43,6.59,33.6,24.1,58.69,32.83,14.14,4.92,26.22,4.68,34.17,4.61A125.56,125.56,0,0,0,405,297.84l.45-.19c13-5.64,28.2-17.09,43.5-40.28h0a57.58,57.58,0,0,0,3.89-18.15A184.1,184.1,0,0,0,444.62,182Z"/><path class="cls-3" d="M81.6,125.09c-8.63-22.5-17-58.62-.84-75.77a1.09,1.09,0,0,0,.24-.07q12.82-4.56,25.62-9.15l2.45-.85c-.13.58-.19.91-.27,1.28-1,4.51-2.07,9-3.06,13.52a1.68,1.68,0,0,0,.29,1.46,1.79,1.79,0,0,0,1.48.08c2.87-1.15,5.73-2.31,8.59-3.55A2.26,2.26,0,0,0,117.21,51c1.68-3.68,3.34-7.36,5-11,.52-1.17,1-2.33,1.59-3.49.35-.79.72-1.58,1.08-2.37a1.92,1.92,0,0,1,.88-.88c2.65-1,5.32-1.94,8-2.89,6.28-2.23,12.56-4.47,18.83-6.67a7.29,7.29,0,0,0,4.48-3.75c2.07-4.19,0-8.16-4.58-8.78a16.79,16.79,0,0,0-7.44.76c-5.91,2-11.83,3.89-17.72,5.88a3.23,3.23,0,0,1-2.5-.11Q104.31,8.9,83.77.24A2.44,2.44,0,0,0,82.22.06q-3.9,1.07-7.77,2.27a1.67,1.67,0,0,0-1,1c-.08.32.34.79.56,1.18.09.15.3.21.42.31Q88.24,14.92,102,25c.46.35.9.7,1.46,1.1a4.27,4.27,0,0,1-.7.36C96,28.89,89.31,31.28,82.57,33.66a2.48,2.48,0,0,1-1.63-.13c-4.08-1.9-8.15-3.86-12.22-5.8a4.51,4.51,0,0,0-1.64-.5c-3-.05-6.12-.07-9.18,0a1.9,1.9,0,0,0-1.41.69A1.9,1.9,0,0,0,57,29.41c1,1.26,2.08,2.41,3.14,3.61q3.55,4.09,7.13,8.18a30.16,30.16,0,0,0-4.39,3.41c-17,16-15.54,48.84.79,90.35a1.51,1.51,0,0,1-.25,1.51A28.26,28.26,0,0,0,61,139.81,194.53,194.53,0,0,0,41.65,182a184.7,184.7,0,0,0-8.26,57.21,57.58,57.58,0,0,0,3.89,18.15c13.17,33.42,56.94,50,91.4,50.57,8.19.13,20,.31,34.17-4.61a71.54,71.54,0,0,0,9.51-4.09,108.78,108.78,0,0,0,16.19-10.73,1.5,1.5,0,0,0,.2-2.2C136.87,228.75,99,170.48,81.6,125.09Z"/></g></g></svg>