<svg width="80" height="80" viewBox="0 0 80 80" fill="none" xmlns="http://www.w3.org/2000/svg">
<path d="M22.1037 39.0156C22.1105 39.078 22.1401 39.1357 22.1869 39.1776C22.2337 39.2194 22.2943 39.2425 22.357 39.2423H23.2815C23.3764 39.241 23.4673 39.2033 23.5352 39.137C23.6032 39.0707 23.6431 38.9809 23.6467 38.886C23.6914 37.04 24.1203 35.2236 24.9059 33.5526C24.9239 33.5139 24.9317 33.4712 24.9288 33.4286C24.9259 33.386 24.9123 33.3449 24.8893 33.3089C24.8662 33.273 24.8345 33.2434 24.797 33.2229C24.7596 33.2025 24.7175 33.1918 24.6748 33.1919H23.7408C23.6988 33.192 23.6575 33.2025 23.6205 33.2224C23.5836 33.2423 23.5521 33.271 23.5289 33.306C22.3997 34.9835 21.8953 37.0042 22.1037 39.0156Z" fill="white"/>
<path d="M55.0933 33.5556C55.8785 35.2267 56.3073 37.043 56.3525 38.8889C56.3549 38.9842 56.3944 39.0748 56.4626 39.1414C56.5308 39.208 56.6224 39.2452 56.7177 39.2452H57.6422C57.7049 39.2454 57.7654 39.2223 57.812 39.1804C57.8587 39.1386 57.8882 39.0809 57.8948 39.0185C58.1039 37.0072 57.5997 34.9863 56.4703 33.3089C56.4471 33.2738 56.4155 33.245 56.3784 33.2251C56.3413 33.2052 56.2998 33.1948 56.2577 33.1948H55.3244C55.2817 33.1947 55.2397 33.2054 55.2022 33.2259C55.1647 33.2463 55.133 33.2759 55.11 33.3118C55.0869 33.3478 55.0733 33.389 55.0704 33.4316C55.0675 33.4742 55.0754 33.5168 55.0933 33.5556Z" fill="white"/>
<path d="M54.9933 35.3164C54.6406 34.2207 54.1579 33.1712 53.5555 32.1904C53.3303 31.8173 52.9967 31.5217 52.5992 31.343C50.9992 30.6245 49.5044 30.2364 48.4511 30.2564C44.5659 30.3304 43.4696 32.1949 40.514 32.383H40.5089C40.3405 32.3939 40.1661 32.3991 39.9859 32.3986C36.6526 32.3838 35.7407 30.3393 31.6748 30.2564C31.5652 30.2564 31.4526 30.2564 31.3318 30.2638C30.9976 30.2849 30.6654 30.3302 30.3378 30.3993C30.3104 30.405 30.286 30.4207 30.2695 30.4432C30.253 30.4658 30.2453 30.4937 30.2481 30.5215C30.5252 33.0489 33.6133 37.5319 38.2481 41.929C38.5582 42.2253 38.8753 42.5193 39.1992 42.8112C44.677 47.7742 52.2214 51.6193 53.797 49.9927C54.1807 49.5964 54.3837 48.6979 53.4066 46.4245C53.9525 48.0216 53.7414 48.6786 53.4392 48.9816C51.9311 50.4904 44.8251 46.5238 39.8837 42.0564L39.6829 41.8734C39.6669 41.8586 39.6555 41.8393 39.6504 41.8181C39.6452 41.7968 39.6464 41.7746 39.6538 41.754C39.6612 41.7334 39.6746 41.7155 39.6921 41.7025C39.7097 41.6895 39.7307 41.6819 39.7526 41.6808C39.9229 41.6712 40.0377 41.6712 40.0674 41.6712C40.6064 41.6771 41.1431 41.7435 41.6674 41.869C43.6251 42.3571 44.1563 43.6541 46.0148 44.3008C47.0622 44.6653 47.957 44.6475 48.5459 44.6423C49.755 44.6238 50.9489 44.3696 52.0607 43.8941L52.094 43.8793C53.057 43.4623 54.1822 42.6141 55.3162 40.8964C55.4842 40.468 55.5818 40.0152 55.6051 39.5556C55.6258 38.1191 55.4193 36.6884 54.9933 35.3164Z" fill="white"/>
<path d="M28.1022 31.1C27.463 29.4333 26.843 26.7578 28.04 25.4874C28.0461 25.4864 28.0521 25.4846 28.0578 25.4822C28.6913 25.257 29.3239 25.0311 29.9555 24.8045L30.137 24.7415C30.1274 24.7845 30.123 24.8089 30.117 24.8363C30.043 25.1704 29.9637 25.503 29.8904 25.8378C29.8854 25.8563 29.8847 25.8756 29.8885 25.8944C29.8922 25.9131 29.9002 25.9308 29.9118 25.9459C29.9286 25.9547 29.9471 25.9598 29.966 25.9608C29.9849 25.9618 30.0038 25.9588 30.0215 25.9519C30.2341 25.8667 30.4459 25.7807 30.6578 25.6889C30.6936 25.6729 30.7227 25.6449 30.74 25.6096C30.8644 25.337 30.9874 25.0645 31.1104 24.7948C31.1489 24.7082 31.1881 24.6222 31.2281 24.5363C31.2541 24.4778 31.2815 24.4193 31.3081 24.3607C31.322 24.3324 31.345 24.3095 31.3733 24.2956C31.5696 24.2215 31.7674 24.1519 31.9659 24.0815C32.4311 23.9163 32.8963 23.7504 33.3607 23.5874C33.4322 23.5665 33.4986 23.531 33.5557 23.4832C33.6128 23.4354 33.6594 23.3763 33.6926 23.3096C33.8459 22.9993 33.6926 22.7052 33.3533 22.6593C33.1677 22.6364 32.9793 22.6556 32.8022 22.7156C32.3644 22.86 31.9259 23.0037 31.4896 23.1511C31.4598 23.1621 31.428 23.1671 31.3962 23.1657C31.3644 23.1643 31.3332 23.1566 31.3044 23.143C30.2906 22.7119 29.2765 22.2825 28.2622 21.8548C28.2264 21.8379 28.1861 21.8332 28.1474 21.8415C27.9548 21.8938 27.763 21.9499 27.5718 22.0096C27.5548 22.0158 27.5394 22.0256 27.5266 22.0384C27.5138 22.0512 27.5039 22.0667 27.4978 22.0837C27.4918 22.1074 27.523 22.1422 27.5393 22.1711C27.5459 22.1822 27.5615 22.1867 27.5704 22.1941C28.2504 22.6933 28.9294 23.1921 29.6074 23.6904C29.6415 23.7163 29.6741 23.7422 29.7155 23.7719C29.6991 23.7823 29.6818 23.7913 29.6637 23.7985C29.1659 23.9778 28.6696 24.1548 28.1704 24.3311C28.1302 24.3417 28.0876 24.3383 28.0496 24.3215C27.7474 24.1807 27.4459 24.0356 27.1444 23.8919C27.1067 23.8719 27.0654 23.8593 27.023 23.8548C26.797 23.8511 26.5696 23.8496 26.343 23.8548C26.3221 23.8499 26.3002 23.8525 26.2812 23.8623C26.2621 23.872 26.2471 23.8881 26.2388 23.9079C26.2306 23.9276 26.2296 23.9496 26.236 23.97C26.2425 23.9904 26.256 24.0079 26.2741 24.0193C26.3481 24.1126 26.4281 24.1978 26.5067 24.2867C26.6825 24.4891 26.8585 24.6911 27.0348 24.8926C26.9189 24.9666 26.81 25.0512 26.7096 25.1452C25.4504 26.3304 25.5585 28.763 26.7681 31.8378C26.7753 31.8564 26.7774 31.8766 26.7741 31.8962C26.7708 31.9159 26.7624 31.9343 26.7496 31.9496C26.6855 32.0278 26.627 32.1105 26.5748 32.197C25.9732 33.178 25.4912 34.2274 25.1393 35.323C24.7159 36.6932 24.5107 38.1215 24.5311 39.5556C24.5538 40.0163 24.6511 40.4704 24.8193 40.9C25.7948 43.3756 29.037 44.6037 31.5896 44.6459C32.1963 44.6556 33.0711 44.6689 34.1207 44.3044C34.3626 44.2206 34.598 44.1194 34.8252 44.0015C35.2478 43.7728 35.6492 43.5068 36.0244 43.2067C36.0367 43.1973 36.0468 43.1856 36.0542 43.1721C36.0617 43.1586 36.0662 43.1438 36.0676 43.1284C36.069 43.1131 36.0672 43.0977 36.0623 43.0831C36.0574 43.0685 36.0496 43.0551 36.0392 43.0437C32.1963 38.7785 29.3911 34.4622 28.1022 31.1Z" fill="white"/>
</svg>
